<?xml version="1.0" encoding="utf-8"?>
<!-- Generator: Adobe Illustrator 19.2.1, SVG Export Plug-In . SVG Version: 6.00 Build 0)  -->
<svg version="1.1" id="Layer_1" xmlns="http://www.w3.org/2000/svg" xmlns:xlink="http://www.w3.org/1999/xlink" x="0px" y="0px"
	 viewBox="0 0 1039.7 6326.2" style="enable-background:new 0 0 1039.7 6326.2;" xml:space="preserve">
<style type="text/css">
	.st0{display:none;}
	.st1{display:inline;}
	.st2{fill:none;stroke:#FFFFFF;stroke-width:2;stroke-miterlimit:10;}
	.st3{fill:#FFFFFF;}
	.st4{fill:none;stroke:#FFFFFF;stroke-miterlimit:10;}
	.st5{fill:none;stroke:#FFFFFF;stroke-width:4;stroke-miterlimit:10;}
	.st6{fill:none;stroke:#FF0000;stroke-miterlimit:10;}
	.st7{fill:none;stroke:#FFFFFF;stroke-width:3;stroke-miterlimit:10;}
	.st8{fill:#FFFFFF;stroke:#FFFFFF;stroke-miterlimit:10;}
	.st9{fill:none;stroke:#FFFFFF;stroke-width:5;stroke-miterlimit:10;}
	.st10{fill:#FFFFFF;stroke:#FFFFFF;stroke-width:2;stroke-miterlimit:10;}
	.st11{fill:url(#SVGID_1_);stroke:url(#SVGID_2_);stroke-miterlimit:10;}
	.st12{fill:#DD1A22;}
	.st13{opacity:0.9;fill:#FFFFFF;stroke:#FFFFFF;stroke-width:2;stroke-miterlimit:10;enable-background:new    ;}
	.st14{opacity:0.8;fill:#FFFFFF;stroke:#FFFFFF;stroke-width:2;stroke-miterlimit:10;enable-background:new    ;}
	.st15{opacity:0.7;fill:#FFFFFF;stroke:#FFFFFF;stroke-width:2;stroke-miterlimit:10;enable-background:new    ;}
	.st16{opacity:0.6;fill:#FFFFFF;stroke:#FFFFFF;stroke-width:2;stroke-miterlimit:10;enable-background:new    ;}
	.st17{opacity:0.5;fill:#FFFFFF;stroke:#FFFFFF;stroke-width:2;stroke-miterlimit:10;enable-background:new    ;}
	.st18{opacity:0.4;fill:#FFFFFF;stroke:#FFFFFF;stroke-width:2;stroke-miterlimit:10;enable-background:new    ;}
	.st19{opacity:0.3;fill:#FFFFFF;stroke:#FFFFFF;stroke-width:2;stroke-miterlimit:10;enable-background:new    ;}
	.st20{opacity:0.2;fill:#FFFFFF;stroke:#FFFFFF;stroke-width:2;stroke-miterlimit:10;enable-background:new    ;}
	.st21{opacity:0.4;fill:#FFFFFF;enable-background:new    ;}
	.st22{fill:url(#SVGID_3_);}
	.st23{font-family:'FiraSans-Light';}
	.st24{font-size:16px;}
	.st25{font-size:12px;}
	.st26{font-size:20px;}
</style>
<g id="Layer_4" class="st0">
	<rect class="st1" width="1039.7" height="6326.2"/>
</g>
<g id="Target">
	<polygon class="st2" points="844.2,3794.3 747,3850.4 649.8,3794.3 649.8,3682.1 747,3626 844.2,3682.1 	"/>
	
		<rect x="736.5" y="3727" transform="matrix(0.7071 -0.7071 0.7071 0.7071 -2424.1414 1623.3154)" class="st3" width="21.8" height="21.8"/>
	<line class="st4" x1="616" y1="3737.6" x2="878" y2="3737.6"/>
	<line class="st4" x1="643" y1="3839.4" x2="720.2" y2="3763.1"/>
	<line class="st4" x1="772.8" y1="3710.2" x2="850.1" y2="3634"/>
	<circle class="st2" cx="230" cy="3733.6" r="112"/>
	<path class="st2" d="M229.5,3653.8c43.8,0,79.3,35.5,79.3,79.3s-35.5,79.3-79.3,79.3"/>
	<path class="st4" d="M229.7,3812.4c-43.8,0-79.3-35.5-79.3-79.3s35.5-79.3,79.3-79.3"/>
	<circle class="st5" cx="231" cy="3733.6" r="26"/>
	<circle class="st3" cx="230.8" cy="3734.3" r="8.4"/>
	<line class="st4" x1="230.5" y1="3585.6" x2="230.5" y2="3882.6"/>
	<line class="st4" x1="378.5" y1="3734.1" x2="81.5" y2="3734.1"/>
	<line class="st5" x1="230.5" y1="3684.8" x2="230.5" y2="3783.8"/>
	<line class="st5" x1="280" y1="3734.3" x2="181" y2="3734.3"/>
	<polyline class="st4" points="891,3463.9 891,3507.1 630,3507.1 630,3464.4 	"/>
	<polyline class="st4" points="630,3284.1 630,3241.6 891,3241.6 891,3284 	"/>
	<circle class="st4" cx="762.2" cy="3373.4" r="100.2"/>
	<circle class="st4" cx="762.5" cy="3372.9" r="78.8"/>
	<circle class="st3" cx="763" cy="3372.6" r="3"/>
	<line class="st4" x1="583" y1="3372.6" x2="750" y2="3372.6"/>
	<line class="st4" x1="777" y1="3372.6" x2="944" y2="3372.6"/>
	<line class="st2" x1="718" y1="3261.6" x2="807" y2="3261.6"/>
	<line class="st2" x1="717.7" y1="3487.6" x2="806.7" y2="3487.6"/>
	<path class="st6" d="M708,3480.4c-1.7-0.9-3.5-1.8-5.2-2.8c-35.7-20.5-59.8-59.1-59.8-103.3c0-46.3,26.5-86.5,65.1-106.1"/>
	<path class="st6" d="M762,3493.4"/>
	<path class="st6" d="M815.6,3268.1c38.8,19.6,65.3,59.8,65.3,106.2c0,44.4-24.3,83.1-60.3,103.6c-1.9,1.1-3.8,2.1-5.7,3.1"/>
	<circle class="st2" cx="231.5" cy="3373.6" r="111.2"/>
	<circle class="st2" cx="229.5" cy="3373.1" r="78.7"/>
	<line class="st2" x1="230" y1="3226.6" x2="230" y2="3523.6"/>
	<line class="st2" x1="378.5" y1="3374.1" x2="81.5" y2="3374.1"/>
</g>
<g id="Abstract">
	<circle class="st4" cx="292.9" cy="4546.4" r="16.5"/>
	<circle class="st4" cx="389.8" cy="4473.4" r="9.5"/>
	<circle class="st4" cx="196.8" cy="4473.4" r="9.5"/>
	<circle class="st2" cx="293.5" cy="4473.4" r="9.5"/>
	<circle class="st2" cx="293.2" cy="4471.8" r="75.9"/>
	<polygon class="st5" points="239.9,4504.2 293.9,4410.6 348,4504.2 	"/>
	<circle class="st5" cx="538.1" cy="4479.3" r="74.6"/>
	<circle class="st2" cx="538.1" cy="4479.1" r="33.5"/>
	<line class="st4" x1="554.6" y1="4392.6" x2="521.6" y2="4564.6"/>
	<line class="st4" x1="488.9" y1="4405.3" x2="586.3" y2="4550.9"/>
	<line class="st4" x1="452.3" y1="4462.3" x2="623.6" y2="4495.3"/>
	<line class="st4" x1="465.9" y1="4526.9" x2="609.9" y2="4429.9"/>
	<circle class="st5" cx="784.3" cy="4479.7" r="67.7"/>
	<circle class="st2" cx="784.5" cy="4479.8" r="75.9"/>
	<polygon class="st4" points="749.1,4520.7 785.3,4458.1 821.4,4520.7 	"/>
	<polygon class="st4" points="821.9,4435.7 785.7,4498.4 749.5,4435.7 	"/>
	<circle class="st4" cx="411.8" cy="4698.1" r="20.4"/>
	<circle class="st4" cx="180.8" cy="4698.1" r="20.4"/>
	<line class="st5" x1="282.4" y1="4673.4" x2="312.7" y2="4718.4"/>
	<line class="st5" x1="282.4" y1="4718.4" x2="312.7" y2="4673.5"/>
	<circle class="st5" cx="296.8" cy="4694.8" r="74.2"/>
	<line class="st5" x1="266.8" y1="4610.2" x2="326.8" y2="4610.2"/>
	<circle class="st5" cx="542.3" cy="4689.3" r="78"/>
	<circle class="st5" cx="513.6" cy="4659.4" r="8.2"/>
	<circle class="st5" cx="571.5" cy="4659.4" r="8.2"/>
	<circle class="st5" cx="571.5" cy="4718.8" r="8.2"/>
	<circle class="st5" cx="513.6" cy="4718.8" r="8.2"/>
	<circle class="st2" cx="784.5" cy="4690.3" r="76.9"/>
	<line class="st2" x1="713.9" y1="4660.3" x2="855.5" y2="4660.3"/>
	<line class="st2" x1="707.6" y1="4690.3" x2="861" y2="4690.3"/>
	<line class="st2" x1="713.6" y1="4720.2" x2="855.5" y2="4720.2"/>
	<circle class="st7" cx="412.2" cy="4911.4" r="76.8"/>
	<line class="st7" x1="412.5" y1="4922.2" x2="412.5" y2="4987.1"/>
	<path class="st3" d="M389,4939.4c-3.8-5-6.1-11.3-6.1-18.1c0-16.4,13.3-29.7,29.7-29.7s29.7,13.3,29.7,29.7c0,6.3-2,12.2-5.4,17
		l2,3.5c4.3-5.6,6.9-12.6,6.9-20.2c0-18.2-14.8-33-33-33s-33,14.8-33,33c0,7.9,2.8,15.1,7.4,20.8L389,4939.4z"/>
	<circle class="st2" cx="696.5" cy="4935.9" r="77.3"/>
	<circle class="st7" cx="638.4" cy="4841.6" r="32.6"/>
	<line class="st2" x1="607" y1="4788.3" x2="698.7" y2="4936.8"/>
</g>
<g id="Hud">
	<polyline class="st2" points="41.4,261.3 41.4,60.3 325.4,60.3 	"/>
	<polyline class="st2" points="325.9,563.3 41.4,563.3 41.4,367.8 41.4,363.3 	"/>
	<polyline class="st2" points="983.4,362.8 983.4,369.3 983.4,563.3 716.4,563.3 	"/>
	<polyline class="st2" points="718.9,60.3 983.4,60.3 983.4,261.8 	"/>
	<path class="st2" d="M963.4,542.3h-241v-102c0-10.5,8.5-19,19-19h222V542.3z"/>
	<line class="st2" x1="343.4" y1="404.3" x2="343.4" y2="540.3"/>
	<rect x="82.4" y="457.3" class="st2" width="240" height="85"/>
	<rect x="88.4" y="463.3" class="st4" width="228" height="72"/>
	<polygon id="Main_Box" class="st4" points="143.4,442.3 82.4,442.3 82.4,410 82.4,401.3 143.4,401.3 	"/>
	<polyline id="Top_Left_Corner" class="st2" points="82.6,409.3 82.6,401.3 90.7,401.3 	"/>
	<polyline id="Top_Right_Corner" class="st2" points="135.4,401.2 143.4,401.2 143.4,409.4 	"/>
	<polyline id="Bottom_Right_Corner" class="st2" points="143.4,434.3 143.4,442.3 135.3,442.3 	"/>
	<polyline id="Bottom_Left_Corner" class="st2" points="90.6,442.4 82.6,442.4 82.6,434.2 	"/>
	<line class="st2" x1="383.4" y1="101.3" x2="383.4" y2="182.3"/>
	<path class="st4" d="M362.4,162v7.3c0,6.6-5.4,12-12,12h-257c-6.6,0-12-5.4-12-12v-56c0-6.6,5.4-12,12-12h257c6.6,0,12,5.4,12,12
		v7.7"/>
</g>
<g id="Arrows">
	<polygon class="st8" points="482.4,2919.7 410.9,2919.7 513.7,2741.6 616.5,2919.7 544.9,2919.7 544.9,2922.6 621.1,2922.6 
		513.7,2736.6 406.3,2922.6 482.4,2922.6 	"/>
	<polygon class="st8" points="488.7,2906.2 431,2906.2 514,2762.5 597,2906.2 539.2,2906.2 539.2,2908.6 600.7,2908.6 514,2758.4 
		427.3,2908.6 488.7,2908.6 	"/>
	<line class="st4" x1="514.2" y1="2761.2" x2="514.2" y2="3064.6"/>
	<line class="st2" x1="531.7" y1="2911" x2="531.7" y2="3064.6"/>
	<line class="st2" x1="496.2" y1="2911" x2="496.2" y2="3064.6"/>
	<polygon class="st3" points="493,2836.1 513.7,2800.2 534.4,2836.1 	"/>
	<circle class="st3" cx="496.2" cy="2907.7" r="4.8"/>
	<circle class="st3" cx="531.7" cy="2907.7" r="4.8"/>
	<polyline class="st4" points="663.3,2439.8 702,2367.4 740.2,2440.1 	"/>
	<polyline class="st4" points="663.8,2574.6 702.4,2647 740.6,2574.4 	"/>
	<polyline class="st4" points="634.6,2469 562.2,2507.7 634.8,2545.9 	"/>
	<polyline class="st4" points="769.4,2468.6 841.8,2507.2 769.1,2545.4 	"/>
	<circle class="st8" cx="701.7" cy="2352.2" r="3"/>
	<circle class="st8" cx="701.7" cy="2660.7" r="3"/>
	<circle class="st8" cx="856" cy="2506.5" r="3"/>
	<circle class="st8" cx="547.5" cy="2506.5" r="3"/>
	<polyline class="st4" points="271.7,2435.9 251.4,2435.9 302.7,2353.6 352,2435.9 331.5,2435.9 	"/>
	<polyline class="st4" points="271.5,2574.4 251.2,2574.4 302.5,2656.7 351.9,2574.4 331.4,2574.4 	"/>
	<polyline class="st4" points="370.9,2475.2 370.9,2454.9 453.2,2506.2 370.9,2555.6 370.9,2535.1 	"/>
	<polyline class="st4" points="232.4,2475.1 232.4,2454.7 150,2506.1 232.4,2555.4 232.4,2534.9 	"/>
	<polyline class="st4" points="268.2,2398.1 302.4,2345.2 335.2,2398.1 	"/>
	<polyline class="st4" points="268,2613.6 302.2,2666.4 335,2613.6 	"/>
	<polyline class="st4" points="409.4,2472.4 462.2,2506.6 409.4,2539.4 	"/>
	<polyline class="st4" points="193.9,2472.2 141,2506.4 193.9,2539.2 	"/>
</g>
<g id="Menu">
	<g>
		<polygon class="st3" points="128.8,5832.2 83.8,5832.2 83.8,5674.2 132.8,5674.2 132.8,5672.2 81.8,5672.2 81.8,5834.2 
			128.8,5834.2 		"/>
		<polygon class="st3" points="255.8,5672.2 255.8,5674.2 295.8,5674.2 295.8,5832.2 250.8,5832.2 250.8,5834.2 297.8,5834.2 
			297.8,5672.2 		"/>
	</g>
	<g>
		<path class="st9" d="M146.3,5785.6v5c0,3.8,3.3,7.1,7.2,7.1h5h19.8h45.2c6.6,0,11.8-5.5,11.8-12.1v-48.9h-89V5785.6z"/>
		<path class="st9" d="M223.5,5719.7h-38.2v-4.1c0-3.9-3.2-6.9-7.1-6.9h-24.8c-3.9,0-7.2,3-7.2,6.9v16.1v5h89v-5
			C235.3,5725.1,230.1,5719.7,223.5,5719.7z"/>
	</g>
	<g>
		<polygon class="st3" points="453.8,5832.2 408.8,5832.2 408.8,5674.2 457.8,5674.2 457.8,5672.2 406.8,5672.2 406.8,5834.2 
			453.8,5834.2 		"/>
		<polygon class="st3" points="580.8,5672.2 580.8,5674.2 620.8,5674.2 620.8,5832.2 575.8,5832.2 575.8,5834.2 622.8,5834.2 
			622.8,5672.2 		"/>
	</g>
	<g id="Planet_Icon_1_">
		<path class="st9" d="M466.8,5796.1c-4.3-4.3,1.7-17.7,14.2-34.1c4.2,8.8,11.6,15.8,20.8,19.3
			C485,5794.2,471.1,5800.5,466.8,5796.1z"/>
		<path class="st9" d="M501.7,5738.2c-3.9-0.3-7-3.6-7-7.6c0-4.2,3.4-7.7,7.7-7.7c4.1,0,7.4,3.2,7.7,7.2c0,0.1,0,0.3,0,0.4
			c0,4.2-3.4,7.7-7.7,7.7C502.1,5738.3,501.9,5738.3,501.7,5738.2z M481,5762c-2.4-5-3.7-10.5-3.7-16.4c0-21.2,17.2-38.3,38.3-38.3
			c6.1,0,11.9,1.4,17,4c8.3,4.1,14.9,11.2,18.5,19.8c-6.4,8.8-14.8,18.6-24.6,28.4c-8.5,8.5-17,15.9-24.8,21.9
			C492.6,5777.8,485.2,5770.8,481,5762z"/>
		<path class="st9" d="M501.7,5738.2c-3.9-0.3-7-3.6-7-7.6c0-4.2,3.4-7.7,7.7-7.7c4.1,0,7.4,3.2,7.7,7.2c0,0.1,0,0.3,0,0.4
			c0,4.2-3.4,7.7-7.7,7.7C502.1,5738.3,501.9,5738.3,501.7,5738.2z"/>
		<path class="st9" d="M551.1,5731c-3.5-8.6-10.1-15.7-18.5-19.8c14.8-10.6,26.6-15.5,30.6-11.6
			C567.3,5703.7,562.2,5715.9,551.1,5731z"/>
		<path class="st9" d="M501.8,5781.3c7.8-6,16.3-13.5,24.8-21.9c9.8-9.8,18.2-19.6,24.6-28.4c1.8,4.5,2.9,9.4,2.9,14.6
			c0,21.2-17.2,38.3-38.3,38.3C510.8,5783.9,506.1,5783,501.8,5781.3z"/>
	</g>
	<g>
		<polygon class="st3" points="776.8,5831.2 731.8,5831.2 731.8,5673.2 780.8,5673.2 780.8,5671.2 729.8,5671.2 729.8,5833.2 
			776.8,5833.2 		"/>
		<polygon class="st3" points="903.8,5671.2 903.8,5673.2 943.8,5673.2 943.8,5831.2 898.8,5831.2 898.8,5833.2 945.8,5833.2 
			945.8,5671.2 		"/>
	</g>
	<g id="Map_Icon">
		<line class="st9" x1="836.9" y1="5721.2" x2="812.4" y2="5711.2"/>
		<line class="st9" x1="812.4" y1="5779.1" x2="836.9" y2="5789.1"/>
		<polyline class="st9" points="857.2,5779.1 881.7,5789.1 881.7,5721.2 857.2,5711.2 		"/>
		<polyline class="st9" points="814.5,5711.2 790,5721.2 790,5789.1 814.5,5779.1 		"/>
		<line class="st9" x1="834.8" y1="5789.1" x2="859.3" y2="5779.1"/>
		<line class="st9" x1="859.3" y1="5711.2" x2="834.8" y2="5721.2"/>
		<path class="st3" d="M812.8,5726.9c0-0.4-0.3-0.7-0.7-0.7h-0.7c-0.4,0-0.7,0.3-0.7,0.7v43.7c0,0.4,0.3,0.7,0.7,0.7h0.7
			c0.4,0,0.7-0.3,0.7-0.7V5726.9z"/>
		<path class="st3" d="M836.8,5731.9c0-0.4-0.3-0.7-0.7-0.7h-0.7c-0.4,0-0.7,0.3-0.7,0.7v43.7c0,0.4,0.3,0.7,0.7,0.7h0.7
			c0.4,0,0.7-0.3,0.7-0.7V5731.9z"/>
		<path class="st3" d="M857.8,5726.9c0-0.4-0.3-0.7-0.7-0.7h-0.7c-0.4,0-0.7,0.3-0.7,0.7v43.7c0,0.4,0.3,0.7,0.7,0.7h0.7
			c0.4,0,0.7-0.3,0.7-0.7V5726.9z"/>
	</g>
	<g>
		<polygon class="st3" points="128.8,6049.2 83.8,6049.2 83.8,5891.2 132.8,5891.2 132.8,5889.2 81.8,5889.2 81.8,6051.2 
			128.8,6051.2 		"/>
		<polygon class="st3" points="255.8,5889.2 255.8,5891.2 295.8,5891.2 295.8,6049.2 250.8,6049.2 250.8,6051.2 297.8,6051.2 
			297.8,5889.2 		"/>
	</g>
	<rect id="Box" x="129.3" y="5915.7" class="st9" width="121" height="108"/>
	<path id="Arrow" class="st3" d="M192.8,5931.8v66.9l19.3-19.1c1.4-1.4,3.8-1.4,5.2,0s1.5,3.7,0.1,5.1l-25,25
		c-0.1,0.1-0.1,0.2-0.1,0.2c-0.1,0.1-0.3,0.1-0.4,0.2c-0.4,0.3-0.8,0.5-1.2,0.7c-0.2,0-0.3,0.1-0.5,0.1c-1.1,0.1-2.2-0.1-3-1
		c-0.1-0.1-0.1-0.2-0.2-0.2l-25-25c-1.4-1.4-1.4-3.7,0-5.1s3.5-1.4,4.9,0l18.9,19.1v-66.9c0-2,1.5-3.6,3.5-3.6
		S192.8,5929.8,192.8,5931.8z"/>
	<g>
		<polygon class="st3" points="451.8,6048.2 406.8,6048.2 406.8,5890.2 455.8,5890.2 455.8,5888.2 404.8,5888.2 404.8,6050.2 
			451.8,6050.2 		"/>
		<polygon class="st3" points="578.8,5888.2 578.8,5890.2 618.8,5890.2 618.8,6048.2 573.8,6048.2 573.8,6050.2 620.8,6050.2 
			620.8,5888.2 		"/>
	</g>
	<g id="Trophy_Icon">
		<g id="XMLID_1_">
			<g>
				<path class="st9" d="M547.3,5912.3c0.2,2.3,0.2,4.7,0.2,7.1c0,32.7-15.1,59.1-33.8,59.1c-18.6,0-33.8-26.5-33.8-59.1
					c0-2.4,0.1-4.8,0.2-7.1"/>
				<polyline class="st9" points="477.8,5912.3 480.2,5912.3 547.3,5912.3 549.9,5912.3 				"/>
			</g>
		</g>
		<path class="st3" d="M483.5,5952.6c-0.1,0-0.1,0-0.2,0c-8.7,1.3-16.9-4.7-18.2-13.5c-1.3-8.7,4.7-16.9,13.5-18.2
			c0.4-0.1,0.9-0.1,1.3-0.1c0.5-1.5,1.1-2.9,1.9-4c-1.3-0.1-2.6,0-3.9,0.2c-10.9,1.6-18.3,11.7-16.7,22.6
			c1.6,10.9,11.7,18.3,22.6,16.7c0.7-0.1,1.4-0.3,2.1-0.4C485,5954.9,484.2,5953.8,483.5,5952.6z"/>
		<path class="st3" d="M544.2,5952.5c0.1,0,0.1,0,0.2,0c8.7,1.3,16.9-4.7,18.2-13.4s-4.7-16.9-13.4-18.2c-0.4-0.1-0.9-0.1-1.3-0.1
			c-0.5-1.5-1.1-2.9-1.9-4c1.3-0.1,2.6,0,3.9,0.2c10.9,1.7,18.3,11.8,16.6,22.7s-11.8,18.3-22.7,16.6c-0.7-0.1-1.4-0.3-2.1-0.4
			C542.6,5954.9,543.4,5953.8,544.2,5952.5z"/>
		<line class="st9" x1="513.3" y1="5979.2" x2="513.3" y2="6019.2"/>
		<path class="st10" d="M534.4,6018.2h-40.8c-0.9,0-1.6,0.6-1.6,1.5s0.7,1.5,1.6,1.5h40.8c0.9,0,1.6-0.6,1.6-1.5
			S535.3,6018.2,534.4,6018.2z"/>
	</g>
	<g>
		<polygon class="st3" points="776.8,6048.2 731.8,6048.2 731.8,5890.2 780.8,5890.2 780.8,5888.2 729.8,5888.2 729.8,6050.2 
			776.8,6050.2 		"/>
		<polygon class="st3" points="903.8,5888.2 903.8,5890.2 943.8,5890.2 943.8,6048.2 898.8,6048.2 898.8,6050.2 945.8,6050.2 
			945.8,5888.2 		"/>
	</g>
	<g id="Sword">
		<g id="XMLID_2_">
			<polygon class="st5" points="790.4,5931.8 788.2,5931.4 791.4,5911.7 810.9,5914.9 810.5,5917.2 812.4,5915.8 852.7,5972.7 
				828.9,5990 788.5,5933.1 			"/>
		</g>
		<path class="st2" d="M863.5,5965.3l-46,33c-0.3,0.2-0.4,0.7-0.2,1l0,0c0.2,0.3,0.7,0.4,1,0.2l46-33c0.3-0.2,0.4-0.7,0.2-1l0,0
			C864.3,5965.1,863.9,5965,863.5,5965.3z"/>
		<path class="st2" d="M836.8,5976.4l-38.3-53.7c-0.2-0.3-0.2-0.8,0.2-1l0,0c0.3-0.2,0.8-0.2,1,0.2l38.3,53.7c0.2,0.3,0.2,0.8-0.2,1
			l0,0C837.5,5976.8,837,5976.7,836.8,5976.4z"/>
		
			<rect x="841.1" y="5980.9" transform="matrix(0.8144 -0.5803 0.5803 0.8144 -3320.0232 1604.8923)" class="st3" width="15.8" height="23.7"/>
		
			<ellipse transform="matrix(0.8144 -0.5803 0.5803 0.8144 -3327.23 1614.4783)" class="st9" cx="860.3" cy="6008.8" rx="9.5" ry="9.5"/>
	</g>
	<g>
		<polygon class="st3" points="452.8,6264.2 407.8,6264.2 407.8,6106.2 456.8,6106.2 456.8,6104.2 405.8,6104.2 405.8,6266.2 
			452.8,6266.2 		"/>
		<polygon class="st3" points="579.8,6104.2 579.8,6106.2 619.8,6106.2 619.8,6264.2 574.8,6264.2 574.8,6266.2 621.8,6266.2 
			621.8,6104.2 		"/>
	</g>
	<g id="Spaceship">
		<circle class="st5" cx="489.3" cy="6160.6" r="11.1"/>
		<path class="st5" d="M528.2,6217.2l16.5-15.5c0,0-27.5-81.8-80.5-68.5C464.2,6133.2,438.2,6179.2,528.2,6217.2z"/>
		<polyline class="st5" points="543.7,6198.8 562.8,6189.8 533.7,6177.3 		"/>
		<polyline class="st5" points="525.1,6217 515.3,6235.7 504.1,6206 		"/>
		<path class="st3" d="M559.7,6232.8l-10.7-18.6c0,0-8.8-3.7-7.4,7.1L559.7,6232.8z"/>
	</g>
</g>
<g id="Radar">
	<g>
		<path class="st3" d="M889.7,4005.4v3.9c30.3,29.8,49.1,71.2,49.1,117c0,45.8-18.8,87.2-49.1,117v3.4
			c31.8-30.4,51.6-73.2,51.6-120.7C941.3,4078.6,921.5,4035.7,889.7,4005.4z"/>
		<path class="st3" d="M653.7,4237.1c-26.8-29.2-43.1-68.1-43.1-110.8c0-42.7,16.3-81.6,43.1-110.8v-4.5
			c-28.6,29.9-46.1,70.5-46.1,115.1c0,44.6,17.5,85.2,46.1,115.1V4237.1z"/>
	</g>
	<g>
		<path class="st3" d="M659.8,4006.4c28.9-27.5,67.8-44.6,110.8-45.3s82.4,15.2,112.2,41.8l4.5-0.1c-30.6-28.3-71.7-45.4-116.6-44.7
			c-45,0.7-85.5,19.1-115.2,48.3H659.8z"/>
		<path class="st3" d="M879.3,4248.5c-28.2,27-66.6,43.3-108.8,42.7c-42.1-0.7-80-18.2-107.3-46.1l-4-0.1
			c28,29.6,67.4,48.4,111.4,49.1s84-16.8,112.9-45.5L879.3,4248.5z"/>
	</g>
	<g>
		<path class="st3" d="M895.8,4189.1c-22.6,45.4-69.5,76.5-123.6,76.5s-101-31.2-123.6-76.5h-2.2c22.8,46.5,70.5,78.4,125.8,78.4
			s103-32,125.8-78.4H895.8z"/>
		<path class="st3" d="M649.9,4063.6c23.1-44,69.2-74,122.3-74s99.2,30,122.3,74h2.2c-23.2-45.1-70.3-76-124.5-76
			c-54.3,0-101.3,30.9-124.5,76H649.9z"/>
	</g>
	<circle class="st4" cx="770.7" cy="4127.7" r="126.4"/>
	<circle class="st4" cx="771" cy="4127.7" r="89"/>
	<circle class="st4" cx="771" cy="4127.7" r="89"/>
	<circle class="st4" cx="771.3" cy="4127" r="53.9"/>
	<circle class="st4" cx="772.3" cy="4124.7" r="7.1"/>
	
		<linearGradient id="SVGID_1_" gradientUnits="userSpaceOnUse" x1="761.9" y1="-964.5481" x2="896" y2="-964.5481" gradientTransform="matrix(1 0 0 -1 0 3098)">
		<stop  offset="0" style="stop-color:#FFFFFF;stop-opacity:0"/>
		<stop  offset="8.731103e-02" style="stop-color:#F9DEDE;stop-opacity:8.731103e-02"/>
		<stop  offset="0.2804" style="stop-color:#EE9C9C;stop-opacity:0.2804"/>
		<stop  offset="0.464" style="stop-color:#E46464;stop-opacity:0.464"/>
		<stop  offset="0.6327" style="stop-color:#DD3939;stop-opacity:0.6327"/>
		<stop  offset="0.7835" style="stop-color:#D71A1A;stop-opacity:0.7835"/>
		<stop  offset="0.9111" style="stop-color:#D40707;stop-opacity:0.9111"/>
		<stop  offset="1" style="stop-color:#D30000"/>
	</linearGradient>
	
		<linearGradient id="SVGID_2_" gradientUnits="userSpaceOnUse" x1="761.3624" y1="-964.5472" x2="896.5565" y2="-964.5472" gradientTransform="matrix(1 0 0 -1 0 3098)">
		<stop  offset="0" style="stop-color:#FFFFFF;stop-opacity:0"/>
		<stop  offset="1" style="stop-color:#000000"/>
	</linearGradient>
	<path class="st11" d="M771.2,4125.2L771.2,4125.2l-9.3-125.3c0,0,120.4-2.5,134.1,114.9L771.2,4125.2"/>
	<line class="st4" x1="684.3" y1="4033.6" x2="860" y2="4216.7"/>
	<line class="st4" x1="863.7" y1="4037.3" x2="680.6" y2="4212.9"/>
	<line class="st4" x1="801.1" y1="4125.2" x2="833.2" y2="4125.2"/>
	<line class="st4" x1="711.8" y1="4125.9" x2="743.9" y2="4125.9"/>
	<circle class="st3" cx="916.3" cy="4127.7" r="2"/>
	<circle class="st3" cx="628.6" cy="4127.9" r="2"/>
	<circle class="st7" cx="244.4" cy="4126.2" r="161.1"/>
	<circle class="st4" cx="243.9" cy="4124.7" r="146.6"/>
	<circle class="st7" cx="243.4" cy="4125.9" r="122.2"/>
	<path class="st3" d="M318.7,4193.9c-18.5,20.2-45.2,32.9-74.8,32.9c-56,0-101.3-45.4-101.3-101.3c0-56,45.4-101.3,101.3-101.3
		c34.7,0,65.3,17.4,83.6,44c0.5-0.1,1.1-0.1,1.6-0.1c0.4,0,0.9,0,1.3,0.1c-18.6-28-50.4-46.4-86.5-46.4
		c-57.3,0-103.8,46.5-103.8,103.8c0,57.3,46.5,103.8,103.8,103.8c30.4,0,57.7-13,76.6-33.8C320,4194.9,319.4,4194.4,318.7,4193.9z"
		/>
	<circle class="st4" cx="242.4" cy="4123.4" r="68.5"/>
	<circle class="st4" cx="243.5" cy="4124.3" r="30.4"/>
	<circle class="st4" cx="260.4" cy="3987.4" r="13.7"/>
	<circle class="st4" cx="235.2" cy="4263.6" r="13.7"/>
	<line class="st4" x1="241.5" y1="4063.1" x2="241.5" y2="4003.7"/>
	<line class="st4" x1="241.5" y1="4185.5" x2="241.5" y2="4248.1"/>
	<line class="st4" x1="266.2" y1="4180.6" x2="289.5" y2="4237.8"/>
	<line class="st4" x1="285.9" y1="4167.1" x2="330.5" y2="4211.7"/>
	<line class="st4" x1="298.9" y1="4147.1" x2="357.2" y2="4170.7"/>
	<line class="st4" x1="302.7" y1="4122.9" x2="365.7" y2="4122.9"/>
	<line class="st4" x1="297.7" y1="4099.5" x2="355" y2="4075.8"/>
	<line class="st4" x1="285.3" y1="4078.8" x2="326.6" y2="4037.5"/>
	<line class="st4" x1="265.4" y1="4067.7" x2="288.3" y2="4013.8"/>
	<line class="st4" x1="217.6" y1="4180.3" x2="193.2" y2="4237.4"/>
	<line class="st4" x1="196.7" y1="4167.4" x2="155.3" y2="4208.7"/>
	<line class="st4" x1="184.6" y1="4146.4" x2="130.6" y2="4168.8"/>
	<line class="st4" x1="180.2" y1="4122.9" x2="121.8" y2="4122.9"/>
	<line class="st4" x1="185.8" y1="4100.2" x2="131.3" y2="4079.1"/>
	<line class="st4" x1="199.3" y1="4080.5" x2="157" y2="4040.1"/>
	<line class="st4" x1="219.3" y1="4067.5" x2="195.7" y2="4013.9"/>
	<circle class="st3" cx="364.9" cy="3999.9" r="4.8"/>
	<circle class="st3" cx="258.8" cy="4098.3" r="4.8"/>
	<circle class="st3" cx="239.7" cy="4152.8" r="4.8"/>
	<circle class="st3" cx="115.4" cy="4244.2" r="4.8"/>
	<polyline class="st7" points="254.9,3990.7 250.6,3987.3 254.9,3984.1 	"/>
	<polyline class="st7" points="265.6,3990.7 269.9,3987.3 265.6,3984.1 	"/>
	<polyline class="st7" points="256.9,3982 260.4,3977.8 263.6,3982 	"/>
	<polyline class="st7" points="256.9,3992.8 260.4,3997 263.6,3992.8 	"/>
	<polyline class="st7" points="254.9,3990.7 250.6,3987.3 254.9,3984.1 	"/>
	<polyline class="st7" points="265.6,3990.7 269.9,3987.3 265.6,3984.1 	"/>
	<polyline class="st7" points="230,4267 225.7,4263.5 230,4260.4 	"/>
	<polyline class="st7" points="240.7,4267 245,4263.5 240.7,4260.4 	"/>
	<polyline class="st7" points="232,4258.3 235.5,4254.1 238.6,4258.3 	"/>
	<polyline class="st7" points="232,4269.1 235.5,4273.3 238.6,4269.1 	"/>
	<circle class="st12" cx="179.7" cy="4099.3" r="4.8"/>
	<circle class="st12" cx="256.9" cy="4072.4" r="4.8"/>
	<circle class="st12" cx="284.8" cy="4116.9" r="4.8"/>
	<circle class="st12" cx="329.2" cy="4157.6" r="4.8"/>
	<circle class="st4" cx="179.6" cy="4099.6" r="8.9"/>
	<circle class="st4" cx="329.2" cy="4157.6" r="8.9"/>
</g>
<g id="Vertical">
	<path class="st2" d="M779.1,2118.1h-28.4c-6.6,0-12-5.4-12-12v-723.6c0-6.6,5.4-12,12-12h28.4c6.6,0,12,5.4,12,12v723.6
		C791.1,2112.7,785.7,2118.1,779.1,2118.1z"/>
	<path class="st10" d="M769.8,2106.3H760c-6.6,0-12-5.4-12-12v-8.3h33.8v8.3C781.8,2100.9,776.4,2106.3,769.8,2106.3z"/>
	<rect x="748" y="2061.5" class="st13" width="33.8" height="18.8"/>
	<rect x="748" y="2037.3" class="st14" width="33.8" height="18.8"/>
	<rect x="748" y="2012.8" class="st15" width="33.8" height="18.8"/>
	<rect x="748" y="1988.7" class="st16" width="33.8" height="18.8"/>
	<rect x="748" y="1963" class="st17" width="33.8" height="18.8"/>
	<rect x="748" y="1938.5" class="st18" width="33.8" height="18.8"/>
	<rect x="748" y="1913.2" class="st19" width="33.8" height="18.8"/>
	<rect x="748" y="1886.7" class="st20" width="33.8" height="18.8"/>
	<rect x="503.1" y="1370.5" class="st21" width="15.2" height="739.1"/>
	<line class="st9" x1="510.7" y1="1628.2" x2="510.7" y2="2111.4"/>
	<circle class="st3" cx="510.7" cy="2106.3" r="11.8"/>
	<path class="st2" d="M254.5,2116.4h-28.8c-6.6,0-12-5.4-12-12v-721.9c0-6.6,5.4-12,12-12h28.8c6.6,0,12,5.4,12,12v721.9
		C266.5,2111,261.1,2116.4,254.5,2116.4z"/>
	<path class="st10" d="M249.8,2109.7h-18.9c-5.5,0-10-4.5-10-10v-442.8h38.9v442.8C259.8,2105.2,255.3,2109.7,249.8,2109.7z"/>
</g>
<g id="Horizontal">
	
		<linearGradient id="SVGID_3_" gradientUnits="userSpaceOnUse" x1="569.103" y1="2404.7029" x2="434.9955" y2="2222.3699" gradientTransform="matrix(1 0 0 -1 0 3098)">
		<stop  offset="0" style="stop-color:#FFFFFF"/>
		<stop  offset="1" style="stop-color:#FFFFFF;stop-opacity:0"/>
	</linearGradient>
	<path class="st22" d="M478,665.3v13c55.1,0.1,99.8,44.8,99.8,99.9c0,55.2-44.7,99.9-99.9,99.9c-18.8,0-36.4-5.2-51.5-14.3h-22.3
		c19.8,17.1,45.6,27.5,73.9,27.5c62.4,0,113-50.6,113-113S540.4,665.3,478,665.3z"/>
	<g>
		<polygon class="st3" points="77.7,950.3 76,950.3 76,960.3 94,960.3 94,958.6 77.7,958.6 		"/>
		<polygon class="st3" points="76,925.3 76,936.3 77.7,936.3 77.7,927 94,927 94,925.3 		"/>
	</g>
	<g>
		<polygon class="st3" points="177.3,950.3 179,950.3 179,960.3 161,960.3 161,958.6 177.3,958.6 		"/>
		<polygon class="st3" points="179,925.3 179,936.3 177.3,936.3 177.3,927 161,927 161,925.3 		"/>
	</g>
	<rect x="73" y="973.3" class="st2" width="880" height="34"/>
	<rect x="81" y="981.3" class="st3" width="751" height="17"/>
	<text transform="matrix(1 0 0 1 98.0007 948.2875)" class="st3 st23 st24">LOADING</text>
	<text transform="matrix(1 0 0 1 98.0007 948.2875)" class="st4 st23 st24">LOADING</text>
	<line class="st2" x1="74" y1="1118.3" x2="492" y2="1118.3"/>
	<line class="st2" x1="535" y1="1118.3" x2="953" y2="1118.3"/>
	<circle class="st2" cx="513.5" cy="1119.1" r="21.5"/>
	<circle class="st3" cx="513.4" cy="1120" r="8.4"/>
	<line class="st2" x1="74.3" y1="1105.3" x2="74.7" y2="1133.3"/>
	<line class="st2" x1="952.8" y1="1105.3" x2="953.2" y2="1133.3"/>
	<polygon class="st10" points="513.1,1147.9 518.1,1154.9 519.9,1154.9 513,1145.3 506,1154.9 508,1154.9 	"/>
	<text transform="matrix(1 0 0 1 501.7507 1166.4624)" class="st3 st23 st25">50%</text>
	<line class="st2" x1="76" y1="1237.3" x2="76.3" y2="1265.3"/>
	<line class="st2" x1="955.5" y1="1237.3" x2="955.8" y2="1265.3"/>
	<line class="st9" x1="76.2" y1="1250.3" x2="617.8" y2="1250.3"/>
	<line class="st2" x1="76.2" y1="1250.3" x2="955.7" y2="1250.3"/>
</g>
<g id="Map">
	<polyline class="st4" points="275.4,5114.3 278,5114.3 316.7,5114.3 316.7,5155.8 	"/>
	<polyline class="st4" points="114.7,5155.7 114.7,5114.3 154.7,5114.3 	"/>
	<polyline class="st4" points="154.8,5276.3 152.4,5276.3 114.7,5276.3 114.7,5239.2 114.7,5235.6 	"/>
	<polyline class="st4" points="316.7,5236.4 316.7,5243.1 316.7,5276.3 274.9,5276.3 	"/>
	<path class="st7" d="M238.1,5187.9l-23.7-44.6l-22.5,45.4c-1.7,2.6-2.6,4.9-3.5,7.5c-1.2,3.4-1.8,7-1.6,10.9
		c0.6,14.5,12.3,26.5,26.8,27.4c16.7,1.1,30.6-12.2,30.6-28.6C244,5199.2,241.6,5193.6,238.1,5187.9z"/>
	<polyline class="st4" points="575.4,5114.3 578,5114.3 616.7,5114.3 616.7,5155.8 	"/>
	<polyline class="st4" points="414.7,5155.7 414.7,5114.3 454.7,5114.3 	"/>
	<polyline class="st4" points="454.8,5276.3 452.4,5276.3 414.7,5276.3 414.7,5239.2 414.7,5235.6 	"/>
	<polyline class="st4" points="616.7,5236.4 616.7,5243.1 616.7,5276.3 574.9,5276.3 	"/>
	<path class="st7" d="M491.9,5194l23.7,44.6l22.5-45.4c1.7-2.6,2.6-4.9,3.5-7.5c1.2-3.4,1.8-7,1.6-10.9
		c-0.6-14.5-12.3-26.5-26.8-27.4c-16.7-1.1-30.6,12.2-30.6,28.6C486,5182.7,488.4,5188.3,491.9,5194z"/>
	<circle class="st7" cx="515.6" cy="5176.3" r="11.4"/>
	<polyline class="st4" points="875.4,5114.8 878,5114.8 916.7,5114.8 916.7,5156.3 	"/>
	<polyline class="st4" points="714.7,5156.2 714.7,5114.8 754.7,5114.8 	"/>
	<polyline class="st4" points="754.8,5276.8 752.4,5276.8 714.7,5276.8 714.7,5239.7 714.7,5236.1 	"/>
	<polyline class="st4" points="916.7,5236.9 916.7,5243.6 916.7,5276.8 874.9,5276.8 	"/>
	<line class="st5" x1="754.8" y1="5151.7" x2="873.1" y2="5239.9"/>
	<line class="st5" x1="873" y1="5151.5" x2="754.9" y2="5240.1"/>
	<polyline class="st4" points="875.9,5355.3 878.5,5355.3 917.2,5355.3 917.2,5396.8 	"/>
	<polyline class="st4" points="715.2,5396.7 715.2,5355.3 755.2,5355.3 	"/>
	<polyline class="st4" points="755.3,5517.3 752.9,5517.3 715.2,5517.3 715.2,5480.2 715.2,5476.6 	"/>
	<polyline class="st4" points="917.2,5477.4 917.2,5484.1 917.2,5517.3 875.4,5517.3 	"/>
	<polyline class="st2" points="737.4,5473.4 753.9,5469.7 776.9,5439.7 791.7,5456.1 798.7,5431.1 809.1,5433.2 822.7,5425.3 
		825.5,5410.8 845.7,5446.1 859.7,5395.1 870.9,5398.7 889.9,5375.7 899.3,5380.3 	"/>
	<polyline class="st4" points="275.1,5355.3 277.7,5355.3 316.3,5355.3 316.3,5396.8 	"/>
	<polyline class="st4" points="114.3,5396.7 114.3,5355.3 154.3,5355.3 	"/>
	<polyline class="st4" points="154.5,5517.3 152.1,5517.3 114.3,5517.3 114.3,5480.2 114.3,5476.6 	"/>
	<polyline class="st4" points="316.3,5477.4 316.3,5484.1 316.3,5517.3 274.6,5517.3 	"/>
	<path class="st3" d="M210.4,5404.3h-0.5c-0.8,0-1.5-0.7-1.5-1.5v-23c0-0.8,0.7-1.5,1.5-1.5h0.5c0.8,0,1.5,0.7,1.5,1.5v23
		C211.9,5403.6,211.2,5404.3,210.4,5404.3z"/>
	<path class="st3" d="M221.9,5404.3h-0.5c-0.8,0-1.5-0.7-1.5-1.5v-23c0-0.8,0.7-1.5,1.5-1.5h0.5c0.8,0,1.5,0.7,1.5,1.5v23
		C223.4,5403.6,222.7,5404.3,221.9,5404.3z"/>
	<path class="st3" d="M198.4,5404.8L198.4,5404.8c-0.9,0-1.5-0.7-1.5-1.5v-23c0-0.8,0.7-1.5,1.5-1.5l0,0c0.8,0,1.5,0.7,1.5,1.5v23
		C199.9,5404.1,199.3,5404.8,198.4,5404.8z"/>
	<path class="st3" d="M234.1,5404.8L234.1,5404.8c-0.9,0-1.5-0.7-1.5-1.5v-23c0-0.8,0.7-1.5,1.5-1.5l0,0c0.8,0,1.5,0.7,1.5,1.5v23
		C235.6,5404.1,234.9,5404.8,234.1,5404.8z"/>
	<path class="st3" d="M215.8,5496.9L215.8,5496.9c-0.9,0-1.6-0.7-1.6-1.6v-70.4c0-0.9,0.7-1.6,1.6-1.6l0,0c0.9,0,1.6,0.7,1.6,1.6
		v70.4C217.4,5496.2,216.7,5496.9,215.8,5496.9z"/>
	<path class="st7" d="M234.1,5380.4v24.7c0,10.7-8,19.5-17.8,19.5l0,0c-9.8,0-17.8-8.8-17.8-19.5v-24.7"/>
	<polyline class="st4" points="575.7,5356.3 578.3,5356.3 616.9,5356.3 616.9,5397.8 	"/>
	<polyline class="st4" points="414.9,5397.7 414.9,5356.3 454.9,5356.3 	"/>
	<polyline class="st4" points="455,5518.3 452.7,5518.3 414.9,5518.3 414.9,5481.2 414.9,5477.6 	"/>
	<polyline class="st4" points="616.9,5478.4 616.9,5485.1 616.9,5518.3 575.2,5518.3 	"/>
	<path class="st2" d="M549.7,5480.3h-70c-6.6,0-12-5.4-12-12v-78c0-6.6,5.4-12,12-12h70c6.6,0,12,5.4,12,12v78
		C561.7,5474.9,556.3,5480.3,549.7,5480.3z"/>
	<line class="st2" x1="468.7" y1="5436.3" x2="561.7" y2="5436.3"/>
	<line class="st2" x1="514.7" y1="5378.3" x2="514.7" y2="5436.3"/>
	<line class="st2" x1="506.7" y1="5459.3" x2="525.7" y2="5459.3"/>
	<circle class="st3" cx="487.7" cy="5459.3" r="7.8"/>
	<circle class="st3" cx="542.5" cy="5459.1" r="7.8"/>
	<path class="st3" d="M481.7,5497.3L481.7,5497.3c-1.1,0-2-0.9-2-2v-13.7c0-1.1,0.9-2,2-2l0,0c1.1,0,2,0.9,2,2v13.7
		C483.7,5496.4,482.8,5497.3,481.7,5497.3z"/>
	<path class="st3" d="M548.7,5497.3L548.7,5497.3c-1.1,0-2-0.9-2-2v-13.7c0-1.1,0.9-2,2-2l0,0c1.1,0,2,0.9,2,2v13.7
		C550.7,5496.4,549.8,5497.3,548.7,5497.3z"/>
	<path class="st3" d="M458.2,5423L458.2,5423c-0.7,0-1.2-0.5-1.2-1.2v-28.2c0-0.7,0.5-1.2,1.2-1.2l0,0c0.7,0,1.2,0.5,1.2,1.2v28.2
		C459.4,5422.4,458.8,5423,458.2,5423z"/>
	<path class="st3" d="M572.2,5423.2L572.2,5423.2c-0.7,0-1.2-0.5-1.2-1.2v-28.2c0-0.7,0.5-1.2,1.2-1.2l0,0c0.7,0,1.2,0.5,1.2,1.2
		v28.2C573.4,5422.6,572.8,5423.2,572.2,5423.2z"/>
</g>
<g id="Layer_11">
	<text transform="matrix(1 0 0 1 41.3789 36.0801)" class="st3 st23 st26" style="text-decoration: underline;">HUD ELEMENTS</text>
	<text transform="matrix(1 0 0 1 41.379 624.0801)" class="st3 st23 st26" style="text-decoration: underline;">HORIZONTAL LOADING</text>
	<text transform="matrix(1 0 0 1 41.3791 1328.0801)" class="st3 st23 st26" style="text-decoration: underline;">VERTICAL LOADING</text>
	<text transform="matrix(1 0 0 1 41.3791 2262.0806)" class="st3 st23 st26" style="text-decoration: underline;">ARROWS</text>
	<text transform="matrix(1 0 0 1 41.3792 3163.1101)" class="st3 st23 st26" style="text-decoration: underline;">TARGETS</text>
	<text transform="matrix(1 0 0 1 41.3787 3922.0354)" class="st3 st23 st26" style="text-decoration: underline;">RADAR</text>
	<text transform="matrix(1 0 0 1 44.6852 4374.7588)" class="st3 st23 st26" style="text-decoration: underline;">ABSTRACT</text>
	<text transform="matrix(1 0 0 1 41.3789 5052.7588)" class="st3 st23 st26" style="text-decoration: underline;">MAP ICONS</text>
	<text transform="matrix(1 0 0 1 44.6852 5622.7588)" class="st3 st23 st26" style="text-decoration: underline;">MENU ICONS</text>
</g>
</svg>
