<?xml version="1.0" encoding="utf-8"?>
<!-- Generator: Adobe Illustrator 19.2.1, SVG Export Plug-In . SVG Version: 6.00 Build 0)  -->
<svg version="1.1" id="Layer_1" xmlns="http://www.w3.org/2000/svg" xmlns:xlink="http://www.w3.org/1999/xlink" x="0px" y="0px"
	 viewBox="0 0 944 6404.9" style="enable-background:new 0 0 944 6404.9;" xml:space="preserve">
<style type="text/css">
	.st0{fill:none;stroke:#FFFFFF;stroke-width:2;stroke-miterlimit:10;}
	.st1{fill:#FFFFFF;}
	.st2{fill:none;stroke:#FFFFFF;stroke-miterlimit:10;}
	.st3{fill:none;stroke:#FFFFFF;stroke-width:4;stroke-miterlimit:10;}
	.st4{fill:none;stroke:#FF0000;stroke-miterlimit:10;}
	.st5{fill:none;stroke:#FFFFFF;stroke-width:3;stroke-miterlimit:10;}
	.st6{fill:#FFFFFF;stroke:#FFFFFF;stroke-miterlimit:10;}
	.st7{fill:none;stroke:#FFFFFF;stroke-width:5;stroke-miterlimit:10;}
	.st8{fill:#FFFFFF;stroke:#FFFFFF;stroke-width:2;stroke-miterlimit:10;}
	.st9{fill:url(#SVGID_1_);stroke:url(#SVGID_2_);stroke-miterlimit:10;}
	.st10{fill:#DD1A22;}
	.st11{opacity:0.9;fill:#FFFFFF;stroke:#FFFFFF;stroke-width:2;stroke-miterlimit:10;enable-background:new    ;}
	.st12{opacity:0.8;fill:#FFFFFF;stroke:#FFFFFF;stroke-width:2;stroke-miterlimit:10;enable-background:new    ;}
	.st13{opacity:0.7;fill:#FFFFFF;stroke:#FFFFFF;stroke-width:2;stroke-miterlimit:10;enable-background:new    ;}
	.st14{opacity:0.6;fill:#FFFFFF;stroke:#FFFFFF;stroke-width:2;stroke-miterlimit:10;enable-background:new    ;}
	.st15{opacity:0.5;fill:#FFFFFF;stroke:#FFFFFF;stroke-width:2;stroke-miterlimit:10;enable-background:new    ;}
	.st16{opacity:0.4;fill:#FFFFFF;stroke:#FFFFFF;stroke-width:2;stroke-miterlimit:10;enable-background:new    ;}
	.st17{opacity:0.3;fill:#FFFFFF;stroke:#FFFFFF;stroke-width:2;stroke-miterlimit:10;enable-background:new    ;}
	.st18{opacity:0.2;fill:#FFFFFF;stroke:#FFFFFF;stroke-width:2;stroke-miterlimit:10;enable-background:new    ;}
	.st19{opacity:0.4;fill:#FFFFFF;enable-background:new    ;}
	.st20{fill:url(#SVGID_3_);}
	.st21{font-family:'FiraSans-Light';}
	.st22{font-size:16px;}
	.st23{font-size:12px;}
	.st24{font-size:20px;}
</style>
<g id="Target">
	<polygon class="st0" points="803.2,3933 706,3989.1 608.8,3933 608.8,3820.8 706,3764.7 803.2,3820.8 	"/>
	
		<rect x="695.6" y="3865.6" transform="matrix(0.7071 -0.7071 0.7071 0.7071 -2534.1855 1634.9644)" class="st1" width="21.8" height="21.8"/>
	<line class="st2" x1="575" y1="3876.3" x2="837" y2="3876.3"/>
	<line class="st2" x1="602" y1="3978.1" x2="679.2" y2="3901.8"/>
	<line class="st2" x1="731.8" y1="3848.9" x2="809.1" y2="3772.7"/>
	<circle class="st0" cx="189" cy="3872.3" r="112"/>
	<path class="st0" d="M188.5,3792.5c43.8,0,79.3,35.5,79.3,79.3s-35.5,79.3-79.3,79.3"/>
	<path class="st2" d="M188.7,3951.1c-43.8,0-79.3-35.5-79.3-79.3s35.5-79.3,79.3-79.3"/>
	<circle class="st3" cx="190" cy="3872.3" r="26"/>
	<circle class="st1" cx="189.8" cy="3873" r="8.4"/>
	<line class="st2" x1="189.5" y1="3724.3" x2="189.5" y2="4021.3"/>
	<line class="st2" x1="337.5" y1="3872.8" x2="40.5" y2="3872.8"/>
	<line class="st3" x1="189.5" y1="3823.5" x2="189.5" y2="3922.5"/>
	<line class="st3" x1="239" y1="3873" x2="140" y2="3873"/>
	<polyline class="st2" points="850,3602.6 850,3645.8 589,3645.8 589,3603.1 	"/>
	<polyline class="st2" points="589,3422.8 589,3380.3 850,3380.3 850,3422.7 	"/>
	<circle class="st2" cx="721.2" cy="3512.1" r="100.2"/>
	<circle class="st2" cx="721.5" cy="3511.6" r="78.8"/>
	<circle class="st1" cx="722" cy="3511.3" r="3"/>
	<line class="st2" x1="542" y1="3511.3" x2="709" y2="3511.3"/>
	<line class="st2" x1="736" y1="3511.3" x2="903" y2="3511.3"/>
	<line class="st0" x1="677" y1="3400.3" x2="766" y2="3400.3"/>
	<line class="st0" x1="676.7" y1="3626.3" x2="765.7" y2="3626.3"/>
	<path class="st4" d="M667,3619.1c-1.7-0.9-3.5-1.8-5.2-2.8c-35.7-20.5-59.8-59.1-59.8-103.3c0-46.3,26.5-86.5,65.1-106.1"/>
	<path class="st4" d="M721,3632.1"/>
	<path class="st4" d="M774.6,3406.8c38.8,19.6,65.3,59.8,65.3,106.2c0,44.4-24.3,83.1-60.3,103.6c-1.9,1.1-3.8,2.1-5.7,3.1"/>
	<circle class="st0" cx="190.5" cy="3512.3" r="111.2"/>
	<circle class="st0" cx="188.5" cy="3511.8" r="78.7"/>
	<line class="st0" x1="189" y1="3365.3" x2="189" y2="3662.3"/>
	<line class="st0" x1="337.5" y1="3512.8" x2="40.5" y2="3512.8"/>
</g>
<g id="Abstract">
	<circle class="st2" cx="251.9" cy="4685.1" r="16.5"/>
	<circle class="st2" cx="348.8" cy="4612.1" r="9.5"/>
	<circle class="st2" cx="155.8" cy="4612.1" r="9.5"/>
	<circle class="st0" cx="252.5" cy="4612.1" r="9.5"/>
	<circle class="st0" cx="252.2" cy="4610.5" r="75.9"/>
	<polygon class="st3" points="198.9,4642.9 252.9,4549.3 307,4642.9 	"/>
	<circle class="st3" cx="497.1" cy="4618" r="74.6"/>
	<circle class="st0" cx="497.1" cy="4617.8" r="33.5"/>
	<line class="st2" x1="513.6" y1="4531.3" x2="480.6" y2="4703.3"/>
	<line class="st2" x1="447.9" y1="4544" x2="545.3" y2="4689.6"/>
	<line class="st2" x1="411.3" y1="4601" x2="582.6" y2="4634"/>
	<line class="st2" x1="424.9" y1="4665.6" x2="568.9" y2="4568.6"/>
	<circle class="st3" cx="743.3" cy="4618.4" r="67.7"/>
	<circle class="st0" cx="743.5" cy="4618.5" r="75.9"/>
	<polygon class="st2" points="708.1,4659.4 744.3,4596.8 780.4,4659.4 	"/>
	<polygon class="st2" points="780.9,4574.4 744.7,4637.1 708.5,4574.4 	"/>
	<circle class="st2" cx="370.8" cy="4836.8" r="20.4"/>
	<circle class="st2" cx="139.8" cy="4836.8" r="20.4"/>
	<line class="st3" x1="241.4" y1="4812.1" x2="271.7" y2="4857.1"/>
	<line class="st3" x1="241.4" y1="4857.1" x2="271.7" y2="4812.2"/>
	<circle class="st3" cx="255.8" cy="4833.5" r="74.2"/>
	<line class="st3" x1="225.8" y1="4748.9" x2="285.8" y2="4748.9"/>
	<circle class="st3" cx="501.3" cy="4828" r="78"/>
	<circle class="st3" cx="472.6" cy="4798.1" r="8.2"/>
	<circle class="st3" cx="530.5" cy="4798.1" r="8.2"/>
	<circle class="st3" cx="530.5" cy="4857.5" r="8.2"/>
	<circle class="st3" cx="472.6" cy="4857.5" r="8.2"/>
	<circle class="st0" cx="743.5" cy="4829" r="76.9"/>
	<line class="st0" x1="672.9" y1="4799" x2="814.5" y2="4799"/>
	<line class="st0" x1="666.6" y1="4829" x2="820" y2="4829"/>
	<line class="st0" x1="672.6" y1="4858.9" x2="814.5" y2="4858.9"/>
	<circle class="st5" cx="371.2" cy="5050.1" r="76.8"/>
	<line class="st5" x1="371.5" y1="5060.9" x2="371.5" y2="5125.8"/>
	<path class="st1" d="M348,5078.1c-3.8-5-6.1-11.3-6.1-18.1c0-16.4,13.3-29.7,29.7-29.7s29.7,13.3,29.7,29.7c0,6.3-2,12.2-5.4,17
		l2,3.5c4.3-5.6,6.9-12.6,6.9-20.2c0-18.2-14.8-33-33-33s-33,14.8-33,33c0,7.9,2.8,15.1,7.4,20.8L348,5078.1z"/>
	<circle class="st0" cx="655.5" cy="5074.6" r="77.3"/>
	<circle class="st5" cx="597.4" cy="4980.3" r="32.6"/>
	<line class="st0" x1="566" y1="4927" x2="657.7" y2="5075.5"/>
</g>
<g id="Hud">
	<polyline class="st0" points="1,242.1 1,41.1 285,41.1 	"/>
	<polyline class="st0" points="285.5,544.1 1,544.1 1,348.6 1,344.1 	"/>
	<polyline class="st0" points="943,343.6 943,350.1 943,544.1 676,544.1 	"/>
	<polyline class="st0" points="678.5,41.1 943,41.1 943,242.6 	"/>
	<path class="st0" d="M923,523.1H682v-102c0-10.5,8.5-19,19-19h222V523.1z"/>
	<line class="st0" x1="303" y1="385.1" x2="303" y2="521.1"/>
	<rect x="42" y="438.1" class="st0" width="240" height="85"/>
	<rect x="48" y="444.1" class="st2" width="228" height="72"/>
	<polygon id="Main_Box" class="st2" points="103,423.1 42,423.1 42,390.8 42,382.1 103,382.1 	"/>
	<polyline id="Top_Left_Corner" class="st0" points="42.2,390.1 42.2,382.1 50.3,382.1 	"/>
	<polyline id="Top_Right_Corner" class="st0" points="95,382 103,382 103,390.2 	"/>
	<polyline id="Bottom_Right_Corner" class="st0" points="103,415.1 103,423.1 94.9,423.1 	"/>
	<polyline id="Bottom_Left_Corner" class="st0" points="50.2,423.2 42.2,423.2 42.2,415 	"/>
	<line class="st0" x1="343" y1="82.1" x2="343" y2="163.1"/>
	<path class="st2" d="M322,142.8v7.3c0,6.6-5.4,12-12,12H53c-6.6,0-12-5.4-12-12v-56c0-6.6,5.4-12,12-12h257c6.6,0,12,5.4,12,12v7.7
		"/>
</g>
<g id="Arrows">
	<polygon class="st6" points="441.4,3058.4 369.9,3058.4 472.7,2880.3 575.5,3058.4 503.9,3058.4 503.9,3061.3 580.1,3061.3 
		472.7,2875.3 365.3,3061.3 441.4,3061.3 	"/>
	<polygon class="st6" points="447.7,3044.9 390,3044.9 473,2901.2 556,3044.9 498.2,3044.9 498.2,3047.3 559.7,3047.3 473,2897.1 
		386.3,3047.3 447.7,3047.3 	"/>
	<line class="st2" x1="473.2" y1="2899.9" x2="473.2" y2="3203.3"/>
	<line class="st0" x1="490.7" y1="3049.7" x2="490.7" y2="3203.3"/>
	<line class="st0" x1="455.2" y1="3049.7" x2="455.2" y2="3203.3"/>
	<polygon class="st1" points="452,2974.8 472.7,2938.9 493.4,2974.8 	"/>
	<circle class="st1" cx="455.2" cy="3046.4" r="4.8"/>
	<circle class="st1" cx="490.7" cy="3046.4" r="4.8"/>
	<polyline class="st2" points="622.3,2578.5 661,2506.1 699.2,2578.8 	"/>
	<polyline class="st2" points="622.8,2713.3 661.4,2785.7 699.6,2713.1 	"/>
	<polyline class="st2" points="593.6,2607.7 521.2,2646.4 593.8,2684.6 	"/>
	<polyline class="st2" points="728.4,2607.3 800.8,2645.9 728.1,2684.1 	"/>
	<circle class="st6" cx="660.7" cy="2490.9" r="3"/>
	<circle class="st6" cx="660.7" cy="2799.4" r="3"/>
	<circle class="st6" cx="815" cy="2645.2" r="3"/>
	<circle class="st6" cx="506.5" cy="2645.2" r="3"/>
	<polyline class="st2" points="230.7,2574.6 210.4,2574.6 261.7,2492.3 311,2574.6 290.5,2574.6 	"/>
	<polyline class="st2" points="230.5,2713.1 210.2,2713.1 261.5,2795.4 310.9,2713.1 290.4,2713.1 	"/>
	<polyline class="st2" points="329.9,2613.9 329.9,2593.6 412.2,2644.9 329.9,2694.3 329.9,2673.8 	"/>
	<polyline class="st2" points="191.4,2613.8 191.4,2593.4 109,2644.8 191.4,2694.1 191.4,2673.6 	"/>
	<polyline class="st2" points="227.2,2536.8 261.4,2483.9 294.2,2536.8 	"/>
	<polyline class="st2" points="227,2752.3 261.2,2805.1 294,2752.3 	"/>
	<polyline class="st2" points="368.4,2611.1 421.2,2645.3 368.4,2678.1 	"/>
	<polyline class="st2" points="152.9,2610.9 100,2645.1 152.9,2677.9 	"/>
</g>
<g id="Menu">
	<g>
		<polygon class="st1" points="87.8,5970.9 42.8,5970.9 42.8,5812.9 91.8,5812.9 91.8,5810.9 40.8,5810.9 40.8,5972.9 87.8,5972.9 
					"/>
		<polygon class="st1" points="214.8,5810.9 214.8,5812.9 254.8,5812.9 254.8,5970.9 209.8,5970.9 209.8,5972.9 256.8,5972.9 
			256.8,5810.9 		"/>
	</g>
	<g>
		<path class="st7" d="M105.3,5924.3v5c0,3.8,3.3,7.1,7.2,7.1h5h19.8h45.2c6.6,0,11.8-5.5,11.8-12.1v-48.9h-89V5924.3z"/>
		<path class="st7" d="M182.5,5858.4h-38.2v-4.1c0-3.9-3.2-6.9-7.1-6.9h-24.8c-3.9,0-7.2,3-7.2,6.9v16.1v5h89v-5
			C194.3,5863.8,189.1,5858.4,182.5,5858.4z"/>
	</g>
	<g>
		<polygon class="st1" points="412.8,5970.9 367.8,5970.9 367.8,5812.9 416.8,5812.9 416.8,5810.9 365.8,5810.9 365.8,5972.9 
			412.8,5972.9 		"/>
		<polygon class="st1" points="539.8,5810.9 539.8,5812.9 579.8,5812.9 579.8,5970.9 534.8,5970.9 534.8,5972.9 581.8,5972.9 
			581.8,5810.9 		"/>
	</g>
	<g id="Planet_Icon_1_">
		<path class="st7" d="M425.8,5934.8c-4.3-4.3,1.7-17.7,14.2-34.1c4.2,8.8,11.6,15.8,20.8,19.3
			C444,5932.9,430.1,5939.2,425.8,5934.8z"/>
		<path class="st7" d="M460.7,5876.9c-3.9-0.3-7-3.6-7-7.6c0-4.2,3.4-7.7,7.7-7.7c4.1,0,7.4,3.2,7.7,7.2c0,0.1,0,0.3,0,0.4
			c0,4.2-3.4,7.7-7.7,7.7C461.1,5877,460.9,5877,460.7,5876.9z M440,5900.7c-2.4-5-3.7-10.5-3.7-16.4c0-21.2,17.2-38.3,38.3-38.3
			c6.1,0,11.9,1.4,17,4c8.3,4.1,14.9,11.2,18.5,19.8c-6.4,8.8-14.8,18.6-24.6,28.4c-8.5,8.5-17,15.9-24.8,21.9
			C451.6,5916.5,444.2,5909.5,440,5900.7z"/>
		<path class="st7" d="M460.7,5876.9c-3.9-0.3-7-3.6-7-7.6c0-4.2,3.4-7.7,7.7-7.7c4.1,0,7.4,3.2,7.7,7.2c0,0.1,0,0.3,0,0.4
			c0,4.2-3.4,7.7-7.7,7.7C461.1,5877,460.9,5877,460.7,5876.9z"/>
		<path class="st7" d="M510.1,5869.7c-3.5-8.6-10.1-15.7-18.5-19.8c14.8-10.6,26.6-15.5,30.6-11.6
			C526.3,5842.4,521.2,5854.6,510.1,5869.7z"/>
		<path class="st7" d="M460.8,5920c7.8-6,16.3-13.5,24.8-21.9c9.8-9.8,18.2-19.6,24.6-28.4c1.8,4.5,2.9,9.4,2.9,14.6
			c0,21.2-17.2,38.3-38.3,38.3C469.8,5922.6,465.1,5921.7,460.8,5920z"/>
	</g>
	<g>
		<polygon class="st1" points="735.8,5969.9 690.8,5969.9 690.8,5811.9 739.8,5811.9 739.8,5809.9 688.8,5809.9 688.8,5971.9 
			735.8,5971.9 		"/>
		<polygon class="st1" points="862.8,5809.9 862.8,5811.9 902.8,5811.9 902.8,5969.9 857.8,5969.9 857.8,5971.9 904.8,5971.9 
			904.8,5809.9 		"/>
	</g>
	<g id="Map_Icon">
		<line class="st7" x1="795.9" y1="5859.9" x2="771.4" y2="5849.9"/>
		<line class="st7" x1="771.4" y1="5917.8" x2="795.9" y2="5927.8"/>
		<polyline class="st7" points="816.2,5917.8 840.7,5927.8 840.7,5859.9 816.2,5849.9 		"/>
		<polyline class="st7" points="773.5,5849.9 749,5859.9 749,5927.8 773.5,5917.8 		"/>
		<line class="st7" x1="793.8" y1="5927.8" x2="818.3" y2="5917.8"/>
		<line class="st7" x1="818.3" y1="5849.9" x2="793.8" y2="5859.9"/>
		<path class="st1" d="M771.8,5865.6c0-0.4-0.3-0.7-0.7-0.7h-0.7c-0.4,0-0.7,0.3-0.7,0.7v43.7c0,0.4,0.3,0.7,0.7,0.7h0.7
			c0.4,0,0.7-0.3,0.7-0.7V5865.6z"/>
		<path class="st1" d="M795.8,5870.6c0-0.4-0.3-0.7-0.7-0.7h-0.7c-0.4,0-0.7,0.3-0.7,0.7v43.7c0,0.4,0.3,0.7,0.7,0.7h0.7
			c0.4,0,0.7-0.3,0.7-0.7V5870.6z"/>
		<path class="st1" d="M816.8,5865.6c0-0.4-0.3-0.7-0.7-0.7h-0.7c-0.4,0-0.7,0.3-0.7,0.7v43.7c0,0.4,0.3,0.7,0.7,0.7h0.7
			c0.4,0,0.7-0.3,0.7-0.7V5865.6z"/>
	</g>
	<g>
		<polygon class="st1" points="87.8,6187.9 42.8,6187.9 42.8,6029.9 91.8,6029.9 91.8,6027.9 40.8,6027.9 40.8,6189.9 87.8,6189.9 
					"/>
		<polygon class="st1" points="214.8,6027.9 214.8,6029.9 254.8,6029.9 254.8,6187.9 209.8,6187.9 209.8,6189.9 256.8,6189.9 
			256.8,6027.9 		"/>
	</g>
	<rect id="Box" x="88.3" y="6054.4" class="st7" width="121" height="108"/>
	<path id="Arrow" class="st1" d="M151.8,6070.5v66.9l19.3-19.1c1.4-1.4,3.8-1.4,5.2,0s1.5,3.7,0.1,5.1l-25,25
		c-0.1,0.1-0.1,0.2-0.1,0.2c-0.1,0.1-0.3,0.1-0.4,0.2c-0.4,0.3-0.8,0.5-1.2,0.7c-0.2,0-0.3,0.1-0.5,0.1c-1.1,0.1-2.2-0.1-3-1
		c-0.1-0.1-0.1-0.2-0.2-0.2l-25-25c-1.4-1.4-1.4-3.7,0-5.1s3.5-1.4,4.9,0l18.9,19.1v-66.9c0-2,1.5-3.6,3.5-3.6
		S151.8,6068.5,151.8,6070.5z"/>
	<g>
		<polygon class="st1" points="410.8,6186.9 365.8,6186.9 365.8,6028.9 414.8,6028.9 414.8,6026.9 363.8,6026.9 363.8,6188.9 
			410.8,6188.9 		"/>
		<polygon class="st1" points="537.8,6026.9 537.8,6028.9 577.8,6028.9 577.8,6186.9 532.8,6186.9 532.8,6188.9 579.8,6188.9 
			579.8,6026.9 		"/>
	</g>
	<g id="Trophy_Icon">
		<g id="XMLID_1_">
			<g>
				<path class="st7" d="M506.3,6051c0.2,2.3,0.2,4.7,0.2,7.1c0,32.7-15.1,59.1-33.8,59.1c-18.6,0-33.8-26.5-33.8-59.1
					c0-2.4,0.1-4.8,0.2-7.1"/>
				<polyline class="st7" points="436.8,6051 439.2,6051 506.3,6051 508.9,6051 				"/>
			</g>
		</g>
		<path class="st1" d="M442.5,6091.3c-0.1,0-0.1,0-0.2,0c-8.7,1.3-16.9-4.7-18.2-13.5c-1.3-8.7,4.7-16.9,13.5-18.2
			c0.4-0.1,0.9-0.1,1.3-0.1c0.5-1.5,1.1-2.9,1.9-4c-1.3-0.1-2.6,0-3.9,0.2c-10.9,1.6-18.3,11.7-16.7,22.6
			c1.6,10.9,11.7,18.3,22.6,16.7c0.7-0.1,1.4-0.3,2.1-0.4C444,6093.6,443.2,6092.5,442.5,6091.3z"/>
		<path class="st1" d="M503.2,6091.2c0.1,0,0.1,0,0.2,0c8.7,1.3,16.9-4.7,18.2-13.4s-4.7-16.9-13.4-18.2c-0.4-0.1-0.9-0.1-1.3-0.1
			c-0.5-1.5-1.1-2.9-1.9-4c1.3-0.1,2.6,0,3.9,0.2c10.9,1.7,18.3,11.8,16.6,22.7s-11.8,18.3-22.7,16.6c-0.7-0.1-1.4-0.3-2.1-0.4
			C501.6,6093.6,502.4,6092.5,503.2,6091.2z"/>
		<line class="st7" x1="472.3" y1="6117.9" x2="472.3" y2="6157.9"/>
		<path class="st8" d="M493.4,6156.9h-40.8c-0.9,0-1.6,0.6-1.6,1.5s0.7,1.5,1.6,1.5h40.8c0.9,0,1.6-0.6,1.6-1.5
			S494.3,6156.9,493.4,6156.9z"/>
	</g>
	<g>
		<polygon class="st1" points="735.8,6186.9 690.8,6186.9 690.8,6028.9 739.8,6028.9 739.8,6026.9 688.8,6026.9 688.8,6188.9 
			735.8,6188.9 		"/>
		<polygon class="st1" points="862.8,6026.9 862.8,6028.9 902.8,6028.9 902.8,6186.9 857.8,6186.9 857.8,6188.9 904.8,6188.9 
			904.8,6026.9 		"/>
	</g>
	<g id="Sword">
		<g id="XMLID_2_">
			<polygon class="st3" points="749.4,6070.5 747.2,6070.1 750.4,6050.4 769.9,6053.6 769.5,6055.9 771.4,6054.5 811.7,6111.4 
				787.9,6128.7 747.5,6071.8 			"/>
		</g>
		<path class="st0" d="M822.5,6104l-46,33c-0.3,0.2-0.4,0.7-0.2,1l0,0c0.2,0.3,0.7,0.4,1,0.2l46-33c0.3-0.2,0.4-0.7,0.2-1l0,0
			C823.3,6103.8,822.9,6103.7,822.5,6104z"/>
		<path class="st0" d="M795.8,6115.1l-38.3-53.7c-0.2-0.3-0.2-0.8,0.2-1l0,0c0.3-0.2,0.8-0.2,1,0.2l38.3,53.7c0.2,0.3,0.2,0.8-0.2,1
			l0,0C796.5,6115.5,796,6115.4,795.8,6115.1z"/>
		
			<rect x="800.1" y="6119.5" transform="matrix(0.8144 -0.5803 0.5803 0.8144 -3408.0898 1606.8578)" class="st1" width="15.8" height="23.7"/>
		
			<ellipse transform="matrix(0.8144 -0.5803 0.5803 0.8144 -3415.2966 1616.4437)" class="st7" cx="819.4" cy="6147.4" rx="9.5" ry="9.5"/>
	</g>
	<g>
		<polygon class="st1" points="411.8,6402.9 366.8,6402.9 366.8,6244.9 415.8,6244.9 415.8,6242.9 364.8,6242.9 364.8,6404.9 
			411.8,6404.9 		"/>
		<polygon class="st1" points="538.8,6242.9 538.8,6244.9 578.8,6244.9 578.8,6402.9 533.8,6402.9 533.8,6404.9 580.8,6404.9 
			580.8,6242.9 		"/>
	</g>
	<g id="Spaceship">
		<circle class="st3" cx="448.3" cy="6299.3" r="11.1"/>
		<path class="st3" d="M487.2,6355.9l16.5-15.5c0,0-27.5-81.8-80.5-68.5C423.2,6271.9,397.2,6317.9,487.2,6355.9z"/>
		<polyline class="st3" points="502.7,6337.5 521.8,6328.5 492.7,6316 		"/>
		<polyline class="st3" points="484.1,6355.7 474.3,6374.4 463.1,6344.7 		"/>
		<path class="st1" d="M518.7,6371.5l-10.7-18.6c0,0-8.8-3.7-7.4,7.1L518.7,6371.5z"/>
	</g>
</g>
<g id="Radar">
	<g>
		<path class="st1" d="M848.7,4144.1v3.9c30.3,29.8,49.1,71.2,49.1,117c0,45.8-18.8,87.2-49.1,117v3.4
			c31.8-30.4,51.6-73.2,51.6-120.7C900.3,4217.3,880.5,4174.4,848.7,4144.1z"/>
		<path class="st1" d="M612.7,4375.8c-26.8-29.2-43.1-68.1-43.1-110.8c0-42.7,16.3-81.6,43.1-110.8v-4.5
			c-28.6,29.9-46.1,70.5-46.1,115.1c0,44.6,17.5,85.2,46.1,115.1V4375.8z"/>
	</g>
	<g>
		<path class="st1" d="M618.8,4145.1c28.9-27.5,67.8-44.6,110.8-45.3c43-0.7,82.4,15.2,112.2,41.8l4.5-0.1
			c-30.6-28.3-71.7-45.4-116.6-44.7c-45,0.7-85.5,19.1-115.2,48.3H618.8z"/>
		<path class="st1" d="M838.3,4387.2c-28.2,27-66.6,43.3-108.8,42.7c-42.1-0.7-80-18.2-107.3-46.1l-4-0.1
			c28,29.6,67.4,48.4,111.4,49.1s84-16.8,112.9-45.5L838.3,4387.2z"/>
	</g>
	<g>
		<path class="st1" d="M854.8,4327.8c-22.6,45.4-69.5,76.5-123.6,76.5s-101-31.2-123.6-76.5h-2.2c22.8,46.5,70.5,78.4,125.8,78.4
			s103-32,125.8-78.4H854.8z"/>
		<path class="st1" d="M608.9,4202.3c23.1-44,69.2-74,122.3-74s99.2,30,122.3,74h2.2c-23.2-45.1-70.3-76-124.5-76
			c-54.3,0-101.3,30.9-124.5,76H608.9z"/>
	</g>
	<circle class="st2" cx="729.7" cy="4266.4" r="126.4"/>
	<circle class="st2" cx="730" cy="4266.4" r="89"/>
	<circle class="st2" cx="730" cy="4266.4" r="89"/>
	<circle class="st2" cx="730.3" cy="4265.7" r="53.9"/>
	<circle class="st2" cx="731.3" cy="4263.4" r="7.1"/>
	
		<linearGradient id="SVGID_1_" gradientUnits="userSpaceOnUse" x1="720.9395" y1="-825.8884" x2="855.0394" y2="-825.8884" gradientTransform="matrix(1 0 0 -1 0 3375.3193)">
		<stop  offset="0" style="stop-color:#FFFFFF;stop-opacity:0"/>
		<stop  offset="8.731103e-02" style="stop-color:#F9DEDE;stop-opacity:8.731103e-02"/>
		<stop  offset="0.2804" style="stop-color:#EE9C9C;stop-opacity:0.2804"/>
		<stop  offset="0.464" style="stop-color:#E46464;stop-opacity:0.464"/>
		<stop  offset="0.6327" style="stop-color:#DD3939;stop-opacity:0.6327"/>
		<stop  offset="0.7835" style="stop-color:#D71A1A;stop-opacity:0.7835"/>
		<stop  offset="0.9111" style="stop-color:#D40707;stop-opacity:0.9111"/>
		<stop  offset="1" style="stop-color:#D30000"/>
	</linearGradient>
	
		<linearGradient id="SVGID_2_" gradientUnits="userSpaceOnUse" x1="720.4018" y1="-825.8876" x2="855.596" y2="-825.8876" gradientTransform="matrix(1 0 0 -1 0 3375.3193)">
		<stop  offset="0" style="stop-color:#FFFFFF;stop-opacity:0"/>
		<stop  offset="1" style="stop-color:#000000"/>
	</linearGradient>
	<path class="st9" d="M730.2,4263.9L730.2,4263.9l-9.3-125.3c0,0,120.4-2.5,134.1,114.9L730.2,4263.9"/>
	<line class="st2" x1="643.3" y1="4172.3" x2="819" y2="4355.4"/>
	<line class="st2" x1="822.7" y1="4176" x2="639.6" y2="4351.6"/>
	<line class="st2" x1="760.1" y1="4263.9" x2="792.2" y2="4263.9"/>
	<line class="st2" x1="670.8" y1="4264.6" x2="702.9" y2="4264.6"/>
	<circle class="st1" cx="875.3" cy="4266.4" r="2"/>
	<circle class="st1" cx="587.6" cy="4266.6" r="2"/>
	<circle class="st5" cx="203.4" cy="4264.9" r="161.1"/>
	<circle class="st2" cx="202.9" cy="4263.4" r="146.6"/>
	<circle class="st5" cx="202.4" cy="4264.6" r="122.2"/>
	<path class="st1" d="M277.7,4332.6c-18.5,20.2-45.2,32.9-74.8,32.9c-56,0-101.3-45.4-101.3-101.3c0-56,45.4-101.3,101.3-101.3
		c34.7,0,65.3,17.4,83.6,44c0.5-0.1,1.1-0.1,1.6-0.1c0.4,0,0.9,0,1.3,0.1c-18.6-28-50.4-46.4-86.5-46.4
		c-57.3,0-103.8,46.5-103.8,103.8s46.5,103.8,103.8,103.8c30.4,0,57.7-13,76.6-33.8C279,4333.6,278.4,4333.1,277.7,4332.6z"/>
	<circle class="st2" cx="201.4" cy="4262.1" r="68.5"/>
	<circle class="st2" cx="202.5" cy="4263" r="30.4"/>
	<circle class="st2" cx="219.4" cy="4126.1" r="13.7"/>
	<circle class="st2" cx="194.2" cy="4402.3" r="13.7"/>
	<line class="st2" x1="200.5" y1="4201.8" x2="200.5" y2="4142.4"/>
	<line class="st2" x1="200.5" y1="4324.2" x2="200.5" y2="4386.8"/>
	<line class="st2" x1="225.2" y1="4319.3" x2="248.5" y2="4376.5"/>
	<line class="st2" x1="244.9" y1="4305.8" x2="289.5" y2="4350.4"/>
	<line class="st2" x1="257.9" y1="4285.8" x2="316.2" y2="4309.4"/>
	<line class="st2" x1="261.7" y1="4261.6" x2="324.7" y2="4261.6"/>
	<line class="st2" x1="256.7" y1="4238.2" x2="314" y2="4214.5"/>
	<line class="st2" x1="244.3" y1="4217.5" x2="285.6" y2="4176.2"/>
	<line class="st2" x1="224.4" y1="4206.4" x2="247.3" y2="4152.5"/>
	<line class="st2" x1="176.6" y1="4319" x2="152.2" y2="4376.1"/>
	<line class="st2" x1="155.7" y1="4306.1" x2="114.3" y2="4347.4"/>
	<line class="st2" x1="143.6" y1="4285.1" x2="89.6" y2="4307.5"/>
	<line class="st2" x1="139.2" y1="4261.6" x2="80.8" y2="4261.6"/>
	<line class="st2" x1="144.8" y1="4238.9" x2="90.3" y2="4217.8"/>
	<line class="st2" x1="158.3" y1="4219.2" x2="116" y2="4178.8"/>
	<line class="st2" x1="178.3" y1="4206.2" x2="154.7" y2="4152.6"/>
	<circle class="st1" cx="323.9" cy="4138.6" r="4.8"/>
	<circle class="st1" cx="217.8" cy="4237" r="4.8"/>
	<circle class="st1" cx="198.7" cy="4291.5" r="4.8"/>
	<circle class="st1" cx="74.4" cy="4382.9" r="4.8"/>
	<polyline class="st5" points="213.9,4129.4 209.6,4126 213.9,4122.8 	"/>
	<polyline class="st5" points="224.6,4129.4 228.9,4126 224.6,4122.8 	"/>
	<polyline class="st5" points="215.9,4120.7 219.4,4116.5 222.6,4120.7 	"/>
	<polyline class="st5" points="215.9,4131.5 219.4,4135.7 222.6,4131.5 	"/>
	<polyline class="st5" points="213.9,4129.4 209.6,4126 213.9,4122.8 	"/>
	<polyline class="st5" points="224.6,4129.4 228.9,4126 224.6,4122.8 	"/>
	<polyline class="st5" points="189,4405.7 184.7,4402.2 189,4399.1 	"/>
	<polyline class="st5" points="199.7,4405.7 204,4402.2 199.7,4399.1 	"/>
	<polyline class="st5" points="191,4397 194.5,4392.8 197.6,4397 	"/>
	<polyline class="st5" points="191,4407.8 194.5,4412 197.6,4407.8 	"/>
	<circle class="st10" cx="138.7" cy="4238" r="4.8"/>
	<circle class="st10" cx="215.9" cy="4211.1" r="4.8"/>
	<circle class="st10" cx="243.8" cy="4255.6" r="4.8"/>
	<circle class="st10" cx="288.2" cy="4296.3" r="4.8"/>
	<circle class="st2" cx="138.6" cy="4238.3" r="8.9"/>
	<circle class="st2" cx="288.2" cy="4296.3" r="8.9"/>
</g>
<g id="Vertical">
	<path class="st0" d="M738.1,2256.8h-28.4c-6.6,0-12-5.4-12-12v-723.6c0-6.6,5.4-12,12-12h28.4c6.6,0,12,5.4,12,12v723.6
		C750.1,2251.4,744.7,2256.8,738.1,2256.8z"/>
	<path class="st8" d="M728.8,2245H719c-6.6,0-12-5.4-12-12v-8.3h33.8v8.3C740.8,2239.6,735.4,2245,728.8,2245z"/>
	<rect x="707" y="2200.2" class="st11" width="33.8" height="18.8"/>
	<rect x="707" y="2176" class="st12" width="33.8" height="18.8"/>
	<rect x="707" y="2151.5" class="st13" width="33.8" height="18.8"/>
	<rect x="707" y="2127.4" class="st14" width="33.8" height="18.8"/>
	<rect x="707" y="2101.7" class="st15" width="33.8" height="18.8"/>
	<rect x="707" y="2077.2" class="st16" width="33.8" height="18.8"/>
	<rect x="707" y="2051.9" class="st17" width="33.8" height="18.8"/>
	<rect x="707" y="2025.4" class="st18" width="33.8" height="18.8"/>
	<rect x="462.1" y="1509.2" class="st19" width="15.2" height="739.1"/>
	<line class="st7" x1="469.7" y1="1766.9" x2="469.7" y2="2250.1"/>
	<circle class="st1" cx="469.7" cy="2245" r="11.8"/>
	<path class="st0" d="M213.5,2255.1h-28.8c-6.6,0-12-5.4-12-12v-721.9c0-6.6,5.4-12,12-12h28.8c6.6,0,12,5.4,12,12v721.9
		C225.5,2249.7,220.1,2255.1,213.5,2255.1z"/>
	<path class="st8" d="M208.8,2248.4h-18.9c-5.5,0-10-4.5-10-10v-442.8h38.9v442.8C218.8,2243.9,214.3,2248.4,208.8,2248.4z"/>
</g>
<g id="Horizontal">
	
		<linearGradient id="SVGID_3_" gradientUnits="userSpaceOnUse" x1="535.553" y1="2631.3625" x2="401.4455" y2="2449.0295" gradientTransform="matrix(1 0 0 -1 0 3375.3193)">
		<stop  offset="0" style="stop-color:#FFFFFF"/>
		<stop  offset="1" style="stop-color:#FFFFFF;stop-opacity:0"/>
	</linearGradient>
	<path class="st20" d="M444.5,716v13c55.1,0.1,99.8,44.8,99.8,99.9c0,55.2-44.7,99.9-99.9,99.9c-18.8,0-36.4-5.2-51.5-14.3h-22.3
		c19.8,17.1,45.6,27.5,73.9,27.5c62.4,0,113-50.6,113-113S506.9,716,444.5,716z"/>
	<g>
		<polygon class="st1" points="44.2,1001 42.5,1001 42.5,1011 60.5,1011 60.5,1009.3 44.2,1009.3 		"/>
		<polygon class="st1" points="42.5,976 42.5,987 44.2,987 44.2,977.7 60.5,977.7 60.5,976 		"/>
	</g>
	<g>
		<polygon class="st1" points="143.8,1001 145.5,1001 145.5,1011 127.5,1011 127.5,1009.3 143.8,1009.3 		"/>
		<polygon class="st1" points="145.5,976 145.5,987 143.8,987 143.8,977.7 127.5,977.7 127.5,976 		"/>
	</g>
	<rect x="39.5" y="1024" class="st0" width="880" height="34"/>
	<rect x="47.5" y="1032" class="st1" width="751" height="17"/>
	<text transform="matrix(1 0 0 1 64.4507 998.9471)" class="st1 st21 st22">LOADING</text>
	<text transform="matrix(1 0 0 1 64.4507 998.9471)" class="st2 st21 st22">LOADING</text>
	<line class="st0" x1="40.5" y1="1169" x2="458.5" y2="1169"/>
	<line class="st0" x1="501.5" y1="1169" x2="919.5" y2="1169"/>
	<circle class="st0" cx="480" cy="1169.8" r="21.5"/>
	<circle class="st1" cx="479.9" cy="1170.7" r="8.4"/>
	<line class="st0" x1="40.8" y1="1156" x2="41.2" y2="1184"/>
	<line class="st0" x1="919.2" y1="1156" x2="919.7" y2="1184"/>
	<polygon class="st8" points="479.5,1198.6 484.5,1205.6 486.4,1205.6 479.5,1196 472.5,1205.6 474.5,1205.6 	"/>
	<text transform="matrix(1 0 0 1 468.2007 1217.1221)" class="st1 st21 st23">50%</text>
	<line class="st0" x1="42.5" y1="1288" x2="42.8" y2="1316"/>
	<line class="st0" x1="922" y1="1288" x2="922.2" y2="1316"/>
	<line class="st7" x1="42.7" y1="1301" x2="584.2" y2="1301"/>
	<line class="st0" x1="42.7" y1="1301" x2="922.2" y2="1301"/>
</g>
<g id="Map">
	<polyline class="st2" points="234.4,5253 237,5253 275.7,5253 275.7,5294.5 	"/>
	<polyline class="st2" points="73.7,5294.4 73.7,5253 113.7,5253 	"/>
	<polyline class="st2" points="113.8,5415 111.4,5415 73.7,5415 73.7,5377.9 73.7,5374.3 	"/>
	<polyline class="st2" points="275.7,5375.1 275.7,5381.8 275.7,5415 233.9,5415 	"/>
	<path class="st5" d="M197.1,5326.6l-23.7-44.6l-22.5,45.4c-1.7,2.6-2.6,4.9-3.5,7.5c-1.2,3.4-1.8,7-1.6,10.9
		c0.6,14.5,12.3,26.5,26.8,27.4c16.7,1.1,30.6-12.2,30.6-28.6C203,5337.9,200.6,5332.3,197.1,5326.6z"/>
	<polyline class="st2" points="534.4,5253 537,5253 575.7,5253 575.7,5294.5 	"/>
	<polyline class="st2" points="373.7,5294.4 373.7,5253 413.7,5253 	"/>
	<polyline class="st2" points="413.8,5415 411.4,5415 373.7,5415 373.7,5377.9 373.7,5374.3 	"/>
	<polyline class="st2" points="575.7,5375.1 575.7,5381.8 575.7,5415 533.9,5415 	"/>
	<path class="st5" d="M450.9,5332.7l23.7,44.6l22.5-45.4c1.7-2.6,2.6-4.9,3.5-7.5c1.2-3.4,1.8-7,1.6-10.9
		c-0.6-14.5-12.3-26.5-26.8-27.4c-16.7-1.1-30.6,12.2-30.6,28.6C445,5321.4,447.4,5327,450.9,5332.7z"/>
	<circle class="st5" cx="474.6" cy="5315" r="11.4"/>
	<polyline class="st2" points="834.4,5253.5 837,5253.5 875.7,5253.5 875.7,5295 	"/>
	<polyline class="st2" points="673.7,5294.9 673.7,5253.5 713.7,5253.5 	"/>
	<polyline class="st2" points="713.8,5415.5 711.4,5415.5 673.7,5415.5 673.7,5378.4 673.7,5374.8 	"/>
	<polyline class="st2" points="875.7,5375.6 875.7,5382.3 875.7,5415.5 833.9,5415.5 	"/>
	<line class="st3" x1="713.8" y1="5290.4" x2="832.1" y2="5378.6"/>
	<line class="st3" x1="832" y1="5290.2" x2="713.9" y2="5378.8"/>
	<polyline class="st2" points="834.9,5494 837.5,5494 876.2,5494 876.2,5535.5 	"/>
	<polyline class="st2" points="674.2,5535.4 674.2,5494 714.2,5494 	"/>
	<polyline class="st2" points="714.3,5656 711.9,5656 674.2,5656 674.2,5618.9 674.2,5615.3 	"/>
	<polyline class="st2" points="876.2,5616.1 876.2,5622.8 876.2,5656 834.4,5656 	"/>
	<polyline class="st0" points="696.4,5612.1 712.9,5608.4 735.9,5578.4 750.7,5594.8 757.7,5569.8 768.1,5571.9 781.7,5564 
		784.5,5549.5 804.7,5584.8 818.7,5533.8 829.9,5537.4 848.9,5514.4 858.3,5519 	"/>
	<polyline class="st2" points="234.1,5494 236.7,5494 275.3,5494 275.3,5535.5 	"/>
	<polyline class="st2" points="73.3,5535.4 73.3,5494 113.3,5494 	"/>
	<polyline class="st2" points="113.5,5656 111.1,5656 73.3,5656 73.3,5618.9 73.3,5615.3 	"/>
	<polyline class="st2" points="275.3,5616.1 275.3,5622.8 275.3,5656 233.6,5656 	"/>
	<path class="st1" d="M169.4,5543h-0.5c-0.8,0-1.5-0.7-1.5-1.5v-23c0-0.8,0.7-1.5,1.5-1.5h0.5c0.8,0,1.5,0.7,1.5,1.5v23
		C170.9,5542.3,170.2,5543,169.4,5543z"/>
	<path class="st1" d="M180.9,5543h-0.5c-0.8,0-1.5-0.7-1.5-1.5v-23c0-0.8,0.7-1.5,1.5-1.5h0.5c0.8,0,1.5,0.7,1.5,1.5v23
		C182.4,5542.3,181.7,5543,180.9,5543z"/>
	<path class="st1" d="M157.4,5543.5L157.4,5543.5c-0.9,0-1.5-0.7-1.5-1.5v-23c0-0.8,0.7-1.5,1.5-1.5l0,0c0.8,0,1.5,0.7,1.5,1.5v23
		C158.9,5542.8,158.3,5543.5,157.4,5543.5z"/>
	<path class="st1" d="M193.1,5543.5L193.1,5543.5c-0.9,0-1.5-0.7-1.5-1.5v-23c0-0.8,0.7-1.5,1.5-1.5l0,0c0.8,0,1.5,0.7,1.5,1.5v23
		C194.6,5542.8,193.9,5543.5,193.1,5543.5z"/>
	<path class="st1" d="M174.8,5635.6L174.8,5635.6c-0.9,0-1.6-0.7-1.6-1.6v-70.4c0-0.9,0.7-1.6,1.6-1.6l0,0c0.9,0,1.6,0.7,1.6,1.6
		v70.4C176.4,5634.9,175.7,5635.6,174.8,5635.6z"/>
	<path class="st5" d="M193.1,5519.1v24.7c0,10.7-8,19.5-17.8,19.5l0,0c-9.8,0-17.8-8.8-17.8-19.5v-24.7"/>
	<polyline class="st2" points="534.7,5495 537.3,5495 575.9,5495 575.9,5536.5 	"/>
	<polyline class="st2" points="373.9,5536.4 373.9,5495 413.9,5495 	"/>
	<polyline class="st2" points="414,5657 411.7,5657 373.9,5657 373.9,5619.9 373.9,5616.3 	"/>
	<polyline class="st2" points="575.9,5617.1 575.9,5623.8 575.9,5657 534.2,5657 	"/>
	<path class="st0" d="M508.7,5619h-70c-6.6,0-12-5.4-12-12v-78c0-6.6,5.4-12,12-12h70c6.6,0,12,5.4,12,12v78
		C520.7,5613.6,515.3,5619,508.7,5619z"/>
	<line class="st0" x1="427.7" y1="5575" x2="520.7" y2="5575"/>
	<line class="st0" x1="473.7" y1="5517" x2="473.7" y2="5575"/>
	<line class="st0" x1="465.7" y1="5598" x2="484.7" y2="5598"/>
	<circle class="st1" cx="446.7" cy="5598" r="7.8"/>
	<circle class="st1" cx="501.5" cy="5597.8" r="7.8"/>
	<path class="st1" d="M440.7,5636L440.7,5636c-1.1,0-2-0.9-2-2v-13.7c0-1.1,0.9-2,2-2l0,0c1.1,0,2,0.9,2,2v13.7
		C442.7,5635.1,441.8,5636,440.7,5636z"/>
	<path class="st1" d="M507.7,5636L507.7,5636c-1.1,0-2-0.9-2-2v-13.7c0-1.1,0.9-2,2-2l0,0c1.1,0,2,0.9,2,2v13.7
		C509.7,5635.1,508.8,5636,507.7,5636z"/>
	<path class="st1" d="M417.2,5561.7L417.2,5561.7c-0.7,0-1.2-0.5-1.2-1.2v-28.2c0-0.7,0.5-1.2,1.2-1.2l0,0c0.7,0,1.2,0.5,1.2,1.2
		v28.2C418.4,5561.1,417.8,5561.7,417.2,5561.7z"/>
	<path class="st1" d="M531.2,5561.9L531.2,5561.9c-0.7,0-1.2-0.5-1.2-1.2v-28.2c0-0.7,0.5-1.2,1.2-1.2l0,0c0.7,0,1.2,0.5,1.2,1.2
		v28.2C532.4,5561.3,531.8,5561.9,531.2,5561.9z"/>
</g>
<g id="Layer_11">
	<text transform="matrix(1 0 0 1 0.9789 16.8497)" class="st1 st21 st24" style="text-decoration: underline;">HUD ELEMENTS</text>
	<text transform="matrix(1 0 0 1 7.829 659.7397)" class="st1 st21 st24" style="text-decoration: underline;">HORIZONTAL LOADING</text>
	<text transform="matrix(1 0 0 1 0.4185 1457.7397)" class="st1 st21 st24" style="text-decoration: underline;">VERTICAL LOADING</text>
	<text transform="matrix(1 0 0 1 0.4185 2400.7402)" class="st1 st21 st24" style="text-decoration: underline;">ARROWS</text>
	<text transform="matrix(1 0 0 1 0.4187 3301.7698)" class="st1 st21 st24" style="text-decoration: underline;">TARGETS</text>
	<text transform="matrix(1 0 0 1 0.4181 4060.6951)" class="st1 st21 st24" style="text-decoration: underline;">RADAR</text>
	<text transform="matrix(1 0 0 1 3.7247 4513.4185)" class="st1 st21 st24" style="text-decoration: underline;">ABSTRACT</text>
	<text transform="matrix(1 0 0 1 0.4184 5191.4185)" class="st1 st21 st24" style="text-decoration: underline;">MAP ICONS</text>
	<text transform="matrix(1 0 0 1 3.7247 5761.4185)" class="st1 st21 st24" style="text-decoration: underline;">MENU ICONS</text>
</g>
</svg>
