<?xml version="1.0" encoding="utf-8"?>
<!-- Generator: Adobe Illustrator 19.2.1, SVG Export Plug-In . SVG Version: 6.00 Build 0)  -->
<svg version="1.1" id="Artboard_1_1_" xmlns="http://www.w3.org/2000/svg" xmlns:xlink="http://www.w3.org/1999/xlink" x="0px"
	 y="0px" viewBox="0 0 2699.5 1521.6" style="enable-background:new 0 0 2699.5 1521.6;" xml:space="preserve">
<style type="text/css">
	.st0{fill:none;stroke:#FFFFFF;stroke-width:2;stroke-miterlimit:10;}
	.st1{fill:#FFFFFF;}
	.st2{font-family:'FiraSans-Light';}
	.st3{font-size:16px;}
	.st4{fill:none;stroke:#FFFFFF;stroke-miterlimit:10;}
	.st5{fill:url(#SVGID_1_);stroke:url(#SVGID_2_);stroke-miterlimit:10;}
	.st6{fill:#FFFFFF;stroke:#FFFFFF;stroke-miterlimit:10;}
	.st7{fill:#FFFFFF;stroke:#FFFFFF;stroke-width:2;stroke-miterlimit:10;}
	.st8{fill:none;stroke:#FF0000;stroke-miterlimit:10;}
</style>
<g id="Outer_Shell">
	<polyline class="st0" points="109.8,577.9 109.8,55 849.5,55 	"/>
	<polyline class="st0" points="2563.4,842 2563.4,858.9 2563.4,1363.6 1868,1363.6 	"/>
	<polyline class="st0" points="1874.5,55 2563.4,55 2563.4,579.2 	"/>
</g>
<g id="Loading_Horizontal">
	<text transform="matrix(1 0 0 1 170.8202 117.4591)" class="st1 st2 st3">LOADING</text>
	<text transform="matrix(1 0 0 1 170.8202 117.4591)" class="st4 st2 st3">LOADING</text>
	<g id="Loading_Box">
		<polygon class="st1" points="150.5,119.5 148.8,119.5 148.8,129.5 166.9,129.5 166.9,127.7 150.5,127.7 		"/>
		<polygon class="st1" points="148.8,94.5 148.8,105.5 150.5,105.5 150.5,96.2 166.9,96.2 166.9,94.5 		"/>
		<polygon class="st1" points="251.8,94.5 251.8,105.5 250.1,105.5 250.1,96.2 233.8,96.2 233.8,94.5 		"/>
		<polygon class="st1" points="250.1,119.5 251.8,119.5 251.8,129.5 233.8,129.5 233.8,127.7 250.1,127.7 		"/>
	</g>
	<rect id="Inner_Loading" x="153.8" y="150.5" class="st1" width="751" height="17"/>
	<rect id="Outer_Loading" x="145.8" y="142.5" class="st0" width="880" height="34"/>
</g>
<g id="Radar">
	<g>
		<path class="st1" d="M282.1,1232.8v3.9c30.3,29.8,49.1,71.2,49.1,117s-18.8,87.2-49.1,117v3.4c31.8-30.4,51.6-73.2,51.6-120.7
			S313.9,1263.2,282.1,1232.8z"/>
		<path class="st1" d="M46.1,1464.5C19.3,1435.3,3,1396.4,3,1353.7s16.3-81.6,43.1-110.8v-4.5C17.5,1268.3,0,1308.9,0,1353.5
			s17.5,85.2,46.1,115.1V1464.5z"/>
	</g>
	<g>
		<path class="st1" d="M52.2,1233.8c28.9-27.5,67.8-44.6,110.8-45.3c43-0.7,82.4,15.2,112.2,41.8l4.5-0.1
			c-30.6-28.3-71.7-45.4-116.6-44.7s-85.5,19.1-115.2,48.3L52.2,1233.8z"/>
		<path class="st1" d="M271.7,1476c-28.2,27-66.6,43.3-108.8,42.7c-42.1-0.7-80-18.2-107.3-46.1l-4-0.1
			c28,29.6,67.4,48.4,111.4,49.1s84-16.8,112.9-45.5L271.7,1476z"/>
	</g>
	<g>
		<path class="st1" d="M288.2,1416.6c-22.6,45.4-69.5,76.5-123.6,76.5s-101-31.2-123.6-76.5h-2.2c22.8,46.5,70.5,78.4,125.8,78.4
			s103-32,125.8-78.4H288.2z"/>
		<path class="st1" d="M42.3,1291.1c23.1-44,69.2-74,122.3-74s99.2,30,122.3,74h2.2c-23.2-45.1-70.3-76-124.5-76
			c-54.3,0-101.3,30.9-124.5,76H42.3z"/>
	</g>
	<circle class="st4" cx="163.1" cy="1355.1" r="126.4"/>
	<circle class="st4" cx="163.4" cy="1355.1" r="89"/>
	<circle class="st4" cx="163.4" cy="1355.1" r="89"/>
	<circle class="st4" cx="163.7" cy="1354.4" r="53.9"/>
	<circle class="st4" cx="164.7" cy="1352.1" r="7.1"/>
	
		<linearGradient id="SVGID_1_" gradientUnits="userSpaceOnUse" x1="154.3" y1="151.4521" x2="288.4" y2="151.4521" gradientTransform="matrix(1 0 0 -1 0 1441.4)">
		<stop  offset="0" style="stop-color:#FFFFFF;stop-opacity:0"/>
		<stop  offset="8.731103e-02" style="stop-color:#F9DEDE;stop-opacity:8.731103e-02"/>
		<stop  offset="0.2804" style="stop-color:#EE9C9C;stop-opacity:0.2804"/>
		<stop  offset="0.464" style="stop-color:#E46464;stop-opacity:0.464"/>
		<stop  offset="0.6327" style="stop-color:#DD3939;stop-opacity:0.6327"/>
		<stop  offset="0.7835" style="stop-color:#D71A1A;stop-opacity:0.7835"/>
		<stop  offset="0.9111" style="stop-color:#D40707;stop-opacity:0.9111"/>
		<stop  offset="1" style="stop-color:#D30000"/>
	</linearGradient>
	
		<linearGradient id="SVGID_2_" gradientUnits="userSpaceOnUse" x1="153.7623" y1="151.4529" x2="288.9565" y2="151.4529" gradientTransform="matrix(1 0 0 -1 0 1441.4)">
		<stop  offset="0" style="stop-color:#FFFFFF;stop-opacity:0"/>
		<stop  offset="1" style="stop-color:#000000"/>
	</linearGradient>
	<path class="st5" d="M163.6,1352.6L163.6,1352.6l-9.3-125.3c0,0,120.4-2.5,134.1,114.9L163.6,1352.6"/>
	<line class="st4" x1="76.8" y1="1261" x2="252.4" y2="1444.1"/>
	<line class="st4" x1="256.1" y1="1264.8" x2="73" y2="1440.4"/>
	<line class="st4" x1="193.5" y1="1352.7" x2="225.6" y2="1352.7"/>
	<line class="st4" x1="104.2" y1="1353.4" x2="136.3" y2="1353.4"/>
	<circle class="st1" cx="308.8" cy="1355.1" r="2"/>
	<circle class="st1" cx="21.1" cy="1355.3" r="2"/>
</g>
<g id="Arrows">
	<g id="Up_Arrow">
		<polyline class="st4" points="1308,91.1 1346.6,18.7 1384.8,91.3 		"/>
		<circle class="st6" cx="1346.4" cy="3.5" r="3"/>
	</g>
	<g id="Left_Arrow">
		<polyline class="st4" points="299.3,670.5 226.9,709.1 299.6,747.3 		"/>
		<circle class="st6" cx="212.2" cy="707.9" r="3"/>
	</g>
	<g id="Right_Arrow">
		<polyline class="st4" points="2393,680.5 2465.4,719.1 2392.8,757.3 		"/>
		<circle class="st6" cx="2479.6" cy="718.4" r="3"/>
	</g>
	<g id="Down_Arrow">
		<polyline class="st4" points="1304,1363.8 1342.6,1436.2 1380.8,1363.6 		"/>
		<circle class="st6" cx="1341.9" cy="1450" r="3"/>
	</g>
</g>
<g id="Vertical_Loading">
	<path id="Outer_Square" class="st0" d="M2686.5,1162.9H2648c-6.6,0-12-5.4-12-12v-859c0-6.6,5.4-12,12-12h38.5c6.6,0,12,5.4,12,12
		v859C2698.5,1157.5,2693.1,1162.9,2686.5,1162.9z"/>
	<path id="Inner_Square" class="st7" d="M2680.5,1154.9h-26c-5.5,0-10-4.5-10-10v-526h46v526
		C2690.5,1150.4,2686,1154.9,2680.5,1154.9z"/>
</g>
<g id="Target">
	<g id="Outer_Box">
		<polyline class="st4" points="1505.9,835.4 1505.9,890.1 1175.8,890.1 1175.8,836 		"/>
		<polyline class="st4" points="1175.8,608 1175.8,554.3 1505.9,554.3 1505.9,607.9 		"/>
	</g>
	<circle id="Middle_Circle" class="st4" cx="1343.1" cy="720.9" r="126.8"/>
	<circle id="Inner_Circle" class="st4" cx="1343.4" cy="720.3" r="99.6"/>
	<circle id="Center_Dot" class="st1" cx="1344" cy="720" r="3.8"/>
	<g id="Lines">
		<line id="Left_Line" class="st4" x1="1116.3" y1="720" x2="1327.6" y2="720"/>
	</g>
	<line id="Right_Line" class="st4" x1="1361.7" y1="720" x2="1573" y2="720"/>
	<line id="Top_Line" class="st0" x1="1287.1" y1="579.6" x2="1399.7" y2="579.6"/>
	<line id="Bottom_Line" class="st0" x1="1286.8" y1="865.5" x2="1399.4" y2="865.5"/>
	<g id="Red_Circles">
		<path class="st8" d="M1274.4,856.4c-2.2-1.1-4.4-2.3-6.5-3.5c-45.2-26-75.7-74.7-75.7-130.6c0-58.6,33.5-109.4,82.4-134.3"/>
		<path class="st8" d="M1410.6,587.8c49,24.8,82.7,75.7,82.7,134.4c0,56.2-30.7,105.1-76.3,131c-2.4,1.4-4.8,2.6-7.3,3.9"/>
	</g>
</g>
</svg>
