<?xml version="1.0" encoding="utf-8"?>
<!-- Generator: Adobe Illustrator 19.2.1, SVG Export Plug-In . SVG Version: 6.00 Build 0)  -->
<svg version="1.1" id="Artboard_1_1_" xmlns="http://www.w3.org/2000/svg" xmlns:xlink="http://www.w3.org/1999/xlink" x="0px"
	 y="0px" viewBox="0 0 1058.4 556.2" style="enable-background:new 0 0 1058.4 556.2;" xml:space="preserve">
<style type="text/css">
	.st0{fill:none;stroke:#FFFFFF;stroke-width:2;stroke-miterlimit:10;}
	.st1{fill:none;stroke:#FFFFFF;stroke-miterlimit:10;}
</style>
<g id="Layer_10">
	<polyline class="st0" points="60.9,224.8 60.9,23.8 344.9,23.8 	"/>
	<polyline class="st0" points="345.4,526.8 60.9,526.8 60.9,331.3 60.9,326.8 	"/>
	<polyline class="st0" points="1002.9,326.3 1002.9,332.8 1002.9,526.8 735.9,526.8 	"/>
	<polyline class="st0" points="738.4,23.8 1002.9,23.8 1002.9,225.3 	"/>
</g>
<g id="Rounded_Corner_Box">
	<path class="st0" d="M982.9,505.8h-241v-102c0-10.5,8.5-19,19-19h222V505.8z"/>
</g>
<g id="Line_2">
	<line class="st0" x1="362.9" y1="367.8" x2="362.9" y2="503.8"/>
</g>
<g id="Large_Box_2">
	<rect x="101.9" y="420.8" class="st0" width="240" height="85"/>
	<rect x="107.9" y="426.8" class="st1" width="228" height="72"/>
</g>
<g id="Small_Box_1">
	<polygon id="Main_Box" class="st1" points="162.9,405.8 101.9,405.8 101.9,373.5 101.9,364.8 162.9,364.8 	"/>
	<polyline id="Top_Left_Corner" class="st0" points="102.1,372.8 102.1,364.8 110.2,364.8 	"/>
	<polyline id="Top_Right_Corner" class="st0" points="154.9,364.8 162.9,364.8 162.9,372.9 	"/>
	<polyline id="Bottom_Right_Corner" class="st0" points="162.9,397.8 162.9,405.8 154.8,405.8 	"/>
	<polyline id="Bottom_Left_Corner" class="st0" points="110.1,405.9 102.1,405.9 102.1,397.8 	"/>
</g>
<g id="Line_1">
	<line class="st0" x1="402.9" y1="64.8" x2="402.9" y2="145.8"/>
</g>
<g id="Large_Box_1">
	<path class="st1" d="M381.9,125.5v7.3c0,6.6-5.4,12-12,12h-257c-6.6,0-12-5.4-12-12v-56c0-6.6,5.4-12,12-12h257c6.6,0,12,5.4,12,12
		v7.7"/>
</g>
</svg>
